<svg width="17" height="17" viewBox="0 0 17 17" fill="none" xmlns="http://www.w3.org/2000/svg">
<path d="M15.0479 5.454C14.9866 5.36538 14.9047 5.29295 14.8093 5.24291C14.7138 5.19287 14.6077 5.16671 14.4999 5.16667H5.38859L4.61925 3.32C4.51838 3.07682 4.34756 2.86906 4.12847 2.72308C3.90937 2.57709 3.65186 2.49945 3.38859 2.5H1.83325V3.83334H3.38859L6.55125 11.4233C6.60191 11.5448 6.68737 11.6485 6.79687 11.7215C6.90637 11.7944 7.03501 11.8333 7.16659 11.8333H12.4999C12.7779 11.8333 13.0266 11.6607 13.1246 11.4013L15.1246 6.068C15.1624 5.96708 15.1752 5.85851 15.1618 5.75157C15.1484 5.64463 15.1094 5.54253 15.0479 5.454ZM12.0379 10.5H7.61125L5.94459 6.5H13.5379L12.0379 10.5Z" fill="white"/>
<path d="M7.5 14.5C8.05228 14.5 8.5 14.0523 8.5 13.5C8.5 12.9477 8.05228 12.5 7.5 12.5C6.94772 12.5 6.5 12.9477 6.5 13.5C6.5 14.0523 6.94772 14.5 7.5 14.5Z" fill="white"/>
<path d="M12.1667 14.5C12.719 14.5 13.1667 14.0523 13.1667 13.5C13.1667 12.9477 12.719 12.5 12.1667 12.5C11.6145 12.5 11.1667 12.9477 11.1667 13.5C11.1667 14.0523 11.6145 14.5 12.1667 14.5Z" fill="white"/>
</svg>
