<svg width="33" height="35" viewBox="0 0 33 35" fill="none" xmlns="http://www.w3.org/2000/svg">
<path d="M16.5 7C10.7103 7 6 11.7103 6 17.5V21.8501C6 22.9253 6.94185 23.8 8.1 23.8H9.15C9.42848 23.8 9.69555 23.6894 9.89246 23.4925C10.0894 23.2955 10.2 23.0285 10.2 22.75V17.3498C10.2 17.0714 10.0894 16.8043 9.89246 16.6074C9.69555 16.4105 9.42848 16.2998 9.15 16.2998H8.1966C8.7804 12.2364 12.2769 9.1 16.5 9.1C20.7231 9.1 24.2196 12.2364 24.8034 16.2998H23.85C23.5715 16.2998 23.3044 16.4105 23.1075 16.6074C22.9106 16.8043 22.8 17.0714 22.8 17.3498V23.8C22.8 24.9581 21.8581 25.9 20.7 25.9H18.6V24.85H14.4V28H20.7C23.0163 28 24.9 26.1163 24.9 23.8C26.0581 23.8 27 22.9253 27 21.8501V17.5C27 11.7103 22.2897 7 16.5 7Z" fill="#535766"/>
</svg>
