<svg width="24" height="25" viewBox="0 0 24 25" fill="none" xmlns="http://www.w3.org/2000/svg">
<path fill-rule="evenodd" clip-rule="evenodd" d="M18.8512 6.95104C18.9367 6.86563 19.0045 6.76421 19.0509 6.65258C19.0972 6.54094 19.1211 6.42127 19.1211 6.30041C19.1212 6.17954 19.0975 6.05985 19.0513 5.94815C19.0051 5.83646 18.9374 5.73496 18.852 5.64944C18.7666 5.56393 18.6651 5.49607 18.5535 5.44975C18.4419 5.40343 18.3222 5.37955 18.2013 5.37947C18.0805 5.3794 17.9608 5.40313 17.8491 5.44931C17.7374 5.4955 17.6359 5.56323 17.5504 5.64864L12 11.199L6.45116 5.64864C6.27846 5.47593 6.04421 5.37891 5.79996 5.37891C5.55572 5.37891 5.32147 5.47593 5.14876 5.64864C4.97606 5.82135 4.87903 6.05559 4.87903 6.29984C4.87903 6.54409 4.97606 6.77833 5.14876 6.95104L10.6992 12.4998L5.14876 18.0486C5.06325 18.1342 4.99541 18.2357 4.94913 18.3474C4.90285 18.4591 4.87903 18.5789 4.87903 18.6998C4.87903 18.8208 4.90285 18.9405 4.94913 19.0523C4.99541 19.164 5.06325 19.2655 5.14876 19.351C5.32147 19.5237 5.55572 19.6208 5.79996 19.6208C5.9209 19.6208 6.04066 19.597 6.15239 19.5507C6.26412 19.5044 6.36565 19.4366 6.45116 19.351L12 13.8006L17.5504 19.351C17.7231 19.5235 17.9572 19.6204 18.2013 19.6202C18.4454 19.6201 18.6795 19.5229 18.852 19.3502C19.0245 19.1775 19.1213 18.9434 19.1211 18.6993C19.121 18.4552 19.0239 18.2211 18.8512 18.0486L13.3008 12.4998L18.8512 6.95104Z" fill="#F94C10"/>
</svg>
