<svg width="30" height="30" viewBox="0 0 30 30" fill="none" xmlns="http://www.w3.org/2000/svg">
<g clip-path="url(#clip0_12_69)">
<path d="M15 30C23.2843 30 30 23.2843 30 15C30 6.71573 23.2843 0 15 0C6.71573 0 0 6.71573 0 15C0 23.2843 6.71573 30 15 30Z" fill="#EBF1FF"/>
<path d="M18.5156 9.25C17.0637 9.25 15.7924 9.87437 15 10.9298C14.2076 9.87437 12.9363 9.25 11.4844 9.25C10.3286 9.2513 9.22053 9.71101 8.40327 10.5283C7.58601 11.3455 7.1263 12.4536 7.125 13.6094C7.125 18.5312 14.4227 22.5152 14.7335 22.6797C14.8154 22.7238 14.907 22.7468 15 22.7468C15.093 22.7468 15.1846 22.7238 15.2665 22.6797C15.5773 22.5152 22.875 18.5312 22.875 13.6094C22.8737 12.4536 22.414 11.3455 21.5967 10.5283C20.7795 9.71101 19.6714 9.2513 18.5156 9.25ZM15 21.5406C13.7161 20.7925 8.25 17.3845 8.25 13.6094C8.25112 12.7519 8.59224 11.9299 9.19856 11.3236C9.80488 10.7172 10.6269 10.3761 11.4844 10.375C12.852 10.375 14.0002 11.1034 14.4797 12.2734C14.5221 12.3766 14.5942 12.4648 14.6868 12.5269C14.7795 12.589 14.8885 12.6222 15 12.6222C15.1115 12.6222 15.2205 12.589 15.3132 12.5269C15.4058 12.4648 15.4779 12.3766 15.5203 12.2734C15.9998 11.1013 17.148 10.375 18.5156 10.375C19.3731 10.3761 20.1951 10.7172 20.8014 11.3236C21.4078 11.9299 21.7489 12.7519 21.75 13.6094C21.75 17.3788 16.2825 20.7918 15 21.5406Z" fill="#F94C10"/>
</g>
<defs>
<clipPath id="clip0_12_69">
<rect width="30" height="30" fill="white"/>
</clipPath>
</defs>
</svg>
