<svg width="601" height="46" viewBox="0 0 601 46" fill="none" xmlns="http://www.w3.org/2000/svg">
<path d="M3.32 15L0.48 1.86H2.02L3.46 9.16C3.59333 9.86667 3.72667 10.5733 3.86 11.28C3.99333 11.9867 4.12667 12.7 4.26 13.42H4.34C4.48667 12.7 4.64 11.9867 4.8 11.28C4.97333 10.5733 5.13333 9.86667 5.28 9.16L7.18 1.86H8.54L10.42 9.16C10.5933 9.86667 10.76 10.5733 10.92 11.28C11.08 11.9867 11.24 12.7 11.4 13.42H11.48C11.6133 12.7 11.74 11.9867 11.86 11.28C11.9933 10.5733 12.1267 9.86667 12.26 9.16L13.7 1.86H15.14L12.36 15H10.6L8.5 6.82C8.39333 6.3 8.28667 5.8 8.18 5.32C8.07333 4.84 7.96667 4.34667 7.86 3.84H7.78C7.67333 4.34667 7.56 4.84 7.44 5.32C7.33333 5.8 7.22 6.3 7.1 6.82L5.06 15H3.32ZM17.3445 15V0.719999H18.7845V4.68L18.7445 6.72C19.2112 6.25333 19.7045 5.86 20.2245 5.54C20.7445 5.22 21.3312 5.06 21.9845 5.06C23.0112 5.06 23.7579 5.38 24.2245 6.02C24.7045 6.66 24.9445 7.6 24.9445 8.84V15H23.4845V9.02C23.4845 8.08667 23.3312 7.40667 23.0245 6.98C22.7312 6.55333 22.2445 6.34 21.5645 6.34C21.0579 6.34 20.5979 6.47333 20.1845 6.74C19.7712 6.99333 19.3045 7.38 18.7845 7.9V15H17.3445ZM31.8453 15.24C31.0586 15.24 30.3253 15.04 29.6453 14.64C28.9653 14.24 28.4186 13.6667 28.0053 12.92C27.592 12.16 27.3853 11.24 27.3853 10.16C27.3853 9.08 27.592 8.16 28.0053 7.4C28.4186 6.64 28.9653 6.06 29.6453 5.66C30.3253 5.26 31.0586 5.06 31.8453 5.06C32.632 5.06 33.3586 5.26 34.0253 5.66C34.7053 6.06 35.252 6.64 35.6653 7.4C36.092 8.16 36.3053 9.08 36.3053 10.16C36.3053 11.24 36.092 12.16 35.6653 12.92C35.252 13.6667 34.7053 14.24 34.0253 14.64C33.3586 15.04 32.632 15.24 31.8453 15.24ZM31.8453 14.02C32.432 14.02 32.9453 13.86 33.3853 13.54C33.8386 13.22 34.1853 12.7733 34.4253 12.2C34.6786 11.6133 34.8053 10.9333 34.8053 10.16C34.8053 9.4 34.6786 8.72667 34.4253 8.14C34.1853 7.55333 33.8386 7.1 33.3853 6.78C32.9453 6.44667 32.432 6.28 31.8453 6.28C31.272 6.28 30.7586 6.44667 30.3053 6.78C29.8653 7.1 29.5186 7.55333 29.2653 8.14C29.0253 8.72667 28.9053 9.4 28.9053 10.16C28.9053 10.9333 29.0253 11.6133 29.2653 12.2C29.5186 12.7733 29.8653 13.22 30.3053 13.54C30.7586 13.86 31.272 14.02 31.8453 14.02ZM42.6461 15.24C41.8594 15.24 41.1261 15.04 40.4461 14.64C39.7661 14.24 39.2194 13.6667 38.8061 12.92C38.3928 12.16 38.1861 11.24 38.1861 10.16C38.1861 9.08 38.3928 8.16 38.8061 7.4C39.2194 6.64 39.7661 6.06 40.4461 5.66C41.1261 5.26 41.8594 5.06 42.6461 5.06C43.4328 5.06 44.1594 5.26 44.8261 5.66C45.5061 6.06 46.0528 6.64 46.4661 7.4C46.8928 8.16 47.1061 9.08 47.1061 10.16C47.1061 11.24 46.8928 12.16 46.4661 12.92C46.0528 13.6667 45.5061 14.24 44.8261 14.64C44.1594 15.04 43.4328 15.24 42.6461 15.24ZM42.6461 14.02C43.2328 14.02 43.7461 13.86 44.1861 13.54C44.6394 13.22 44.9861 12.7733 45.2261 12.2C45.4794 11.6133 45.6061 10.9333 45.6061 10.16C45.6061 9.4 45.4794 8.72667 45.2261 8.14C44.9861 7.55333 44.6394 7.1 44.1861 6.78C43.7461 6.44667 43.2328 6.28 42.6461 6.28C42.0728 6.28 41.5594 6.44667 41.1061 6.78C40.6661 7.1 40.3194 7.55333 40.0661 8.14C39.8261 8.72667 39.7061 9.4 39.7061 10.16C39.7061 10.9333 39.8261 11.6133 40.0661 12.2C40.3194 12.7733 40.6661 13.22 41.1061 13.54C41.5594 13.86 42.0728 14.02 42.6461 14.02ZM49.7469 19.16V5.3H50.9469L51.0669 6.46H51.1269C51.5669 6.07333 52.0535 5.74667 52.5869 5.48C53.1335 5.2 53.6935 5.06 54.2669 5.06C55.1069 5.06 55.8135 5.26667 56.3869 5.68C56.9602 6.08 57.3869 6.65333 57.6669 7.4C57.9602 8.13333 58.1069 9 58.1069 10C58.1069 11.1067 57.9069 12.0533 57.5069 12.84C57.1202 13.6133 56.6069 14.2067 55.9669 14.62C55.3269 15.0333 54.6402 15.24 53.9069 15.24C53.4669 15.24 53.0135 15.14 52.5469 14.94C52.0802 14.74 51.6135 14.46 51.1469 14.1L51.1869 15.82V19.16H49.7469ZM53.6669 14C54.2402 14 54.7469 13.84 55.1869 13.52C55.6269 13.2 55.9735 12.74 56.2269 12.14C56.4802 11.54 56.6069 10.8333 56.6069 10.02C56.6069 9.28667 56.5135 8.64 56.3269 8.08C56.1535 7.52 55.8669 7.08667 55.4669 6.78C55.0802 6.46 54.5669 6.3 53.9269 6.3C53.5002 6.3 53.0602 6.42 52.6069 6.66C52.1669 6.88667 51.6935 7.23333 51.1869 7.7V12.94C51.6669 13.3267 52.1202 13.6 52.5469 13.76C52.9735 13.92 53.3469 14 53.6669 14ZM63.262 15.24C62.5687 15.24 61.9087 15.1133 61.282 14.86C60.6554 14.5933 60.1154 14.2733 59.662 13.9L60.402 12.92C60.8287 13.2533 61.2687 13.5333 61.722 13.76C62.1754 13.9867 62.7087 14.1 63.322 14.1C63.9887 14.1 64.4887 13.94 64.822 13.62C65.1554 13.3 65.322 12.92 65.322 12.48C65.322 12.1333 65.2087 11.8467 64.982 11.62C64.7554 11.38 64.4687 11.18 64.122 11.02C63.7754 10.8467 63.422 10.6933 63.062 10.56C62.6087 10.4 62.1554 10.2067 61.702 9.98C61.2487 9.75333 60.8687 9.46667 60.562 9.12C60.2687 8.77333 60.122 8.32667 60.122 7.78C60.122 7.02 60.4087 6.38 60.982 5.86C61.5687 5.32667 62.382 5.06 63.422 5.06C64.0087 5.06 64.5554 5.16667 65.062 5.38C65.5687 5.59333 66.002 5.84667 66.362 6.14L65.662 7.08C65.3287 6.84 64.982 6.64 64.622 6.48C64.2754 6.30667 63.8754 6.22 63.422 6.22C62.782 6.22 62.3087 6.37333 62.002 6.68C61.6954 6.97333 61.542 7.31333 61.542 7.7C61.542 8.02 61.642 8.28667 61.842 8.5C62.0554 8.7 62.3287 8.87333 62.662 9.02C62.9954 9.16667 63.3487 9.31333 63.722 9.46C64.202 9.63333 64.6687 9.83333 65.122 10.06C65.5887 10.2733 65.9754 10.56 66.282 10.92C66.5887 11.28 66.742 11.7733 66.742 12.4C66.742 12.9067 66.6087 13.38 66.342 13.82C66.0754 14.2467 65.682 14.5933 65.162 14.86C64.642 15.1133 64.0087 15.24 63.262 15.24ZM69.1023 15V5.3H70.5423V15H69.1023ZM69.8423 3.22C69.5623 3.22 69.3223 3.12667 69.1223 2.94C68.9357 2.75333 68.8423 2.50667 68.8423 2.2C68.8423 1.90667 68.9357 1.67333 69.1223 1.5C69.3223 1.31333 69.5623 1.22 69.8423 1.22C70.1357 1.22 70.3757 1.31333 70.5623 1.5C70.749 1.67333 70.8423 1.90667 70.8423 2.2C70.8423 2.50667 70.749 2.75333 70.5623 2.94C70.3757 3.12667 70.1357 3.22 69.8423 3.22ZM77.7861 15.24C76.9461 15.24 76.1728 15.04 75.4661 14.64C74.7728 14.2267 74.2194 13.6467 73.8061 12.9C73.3928 12.14 73.1861 11.2267 73.1861 10.16C73.1861 9.10667 73.3928 8.2 73.8061 7.44C74.2194 6.68 74.7528 6.09333 75.4061 5.68C76.0728 5.26667 76.7794 5.06 77.5261 5.06C78.3261 5.06 79.0128 5.24667 79.5861 5.62C80.1594 5.99333 80.5928 6.52 80.8861 7.2C81.1928 7.86667 81.3461 8.66667 81.3461 9.6C81.3461 9.76 81.3394 9.92 81.3261 10.08C81.3261 10.2267 81.3128 10.36 81.2861 10.48H74.3261L74.3061 9.42H80.0461C80.0461 8.38 79.8261 7.59333 79.3861 7.06C78.9461 6.51333 78.3328 6.24 77.5461 6.24C77.0661 6.24 76.5994 6.38 76.1461 6.66C75.6928 6.94 75.3194 7.36667 75.0261 7.94C74.7328 8.51333 74.5861 9.25333 74.5861 10.16C74.5861 11.0267 74.7394 11.7467 75.0461 12.32C75.3528 12.8933 75.7594 13.3267 76.2661 13.62C76.7861 13.9133 77.3528 14.06 77.9661 14.06C78.4594 14.06 78.8994 13.9867 79.2861 13.84C79.6861 13.6933 80.0661 13.5067 80.4261 13.28L80.9661 14.24C80.5528 14.5067 80.0861 14.74 79.5661 14.94C79.0594 15.14 78.4661 15.24 77.7861 15.24ZM82.9098 10.56V9.42H87.4498V10.56H82.9098ZM93.2022 15.24C91.9889 15.24 91.0222 14.8 90.3022 13.92C89.5822 13.0267 89.2222 11.7733 89.2222 10.16C89.2222 9.12 89.4155 8.22 89.8022 7.46C90.2022 6.7 90.7222 6.11333 91.3622 5.7C92.0022 5.27333 92.6955 5.06 93.4422 5.06C94.0155 5.06 94.5089 5.16 94.9222 5.36C95.3355 5.56 95.7622 5.84 96.2022 6.2L96.1422 4.52V0.719999H97.5822V15H96.3822L96.2622 13.82H96.2022C95.8289 14.2067 95.3822 14.54 94.8622 14.82C94.3555 15.1 93.8022 15.24 93.2022 15.24ZM93.5222 14C93.9889 14 94.4355 13.8867 94.8622 13.66C95.2889 13.42 95.7155 13.0733 96.1422 12.62V7.36C95.7022 6.97333 95.2822 6.7 94.8822 6.54C94.4822 6.38 94.0755 6.3 93.6622 6.3C93.1155 6.3 92.6155 6.46667 92.1622 6.8C91.7222 7.12 91.3689 7.57333 91.1022 8.16C90.8489 8.73333 90.7222 9.4 90.7222 10.16C90.7222 11.3467 90.9622 12.2867 91.4422 12.98C91.9355 13.66 92.6289 14 93.5222 14ZM103.177 15.24C102.644 15.24 102.164 15.1333 101.737 14.92C101.311 14.7067 100.971 14.4 100.717 14C100.464 13.5867 100.337 13.0867 100.337 12.5C100.337 11.4467 100.817 10.64 101.777 10.08C102.751 9.50667 104.284 9.10667 106.377 8.88C106.377 8.44 106.317 8.02 106.197 7.62C106.091 7.22 105.884 6.9 105.577 6.66C105.284 6.40667 104.857 6.28 104.297 6.28C103.711 6.28 103.164 6.39333 102.657 6.62C102.164 6.84667 101.731 7.08667 101.357 7.34L100.777 6.34C101.057 6.15333 101.391 5.96 101.777 5.76C102.164 5.56 102.591 5.39333 103.057 5.26C103.524 5.12667 104.017 5.06 104.537 5.06C105.324 5.06 105.957 5.22667 106.437 5.56C106.917 5.89333 107.264 6.35333 107.477 6.94C107.704 7.52667 107.817 8.21333 107.817 9V15H106.617L106.497 13.82H106.437C105.971 14.2067 105.464 14.54 104.917 14.82C104.371 15.1 103.791 15.24 103.177 15.24ZM103.557 14.06C104.064 14.06 104.531 13.9467 104.957 13.72C105.397 13.48 105.871 13.14 106.377 12.7V9.86C105.231 9.99333 104.324 10.18 103.657 10.42C102.991 10.6467 102.511 10.9267 102.217 11.26C101.924 11.5933 101.777 11.98 101.777 12.42C101.777 12.9933 101.951 13.4133 102.297 13.68C102.657 13.9333 103.077 14.06 103.557 14.06ZM110.997 15V5.3H112.437V15H110.997ZM111.737 3.22C111.457 3.22 111.217 3.12667 111.017 2.94C110.83 2.75333 110.737 2.50667 110.737 2.2C110.737 1.90667 110.83 1.67333 111.017 1.5C111.217 1.31333 111.457 1.22 111.737 1.22C112.03 1.22 112.27 1.31333 112.457 1.5C112.644 1.67333 112.737 1.90667 112.737 2.2C112.737 2.50667 112.644 2.75333 112.457 2.94C112.27 3.12667 112.03 3.22 111.737 3.22ZM118.321 15.24C117.627 15.24 116.967 15.1133 116.341 14.86C115.714 14.5933 115.174 14.2733 114.721 13.9L115.461 12.92C115.887 13.2533 116.327 13.5333 116.781 13.76C117.234 13.9867 117.767 14.1 118.381 14.1C119.047 14.1 119.547 13.94 119.881 13.62C120.214 13.3 120.381 12.92 120.381 12.48C120.381 12.1333 120.267 11.8467 120.041 11.62C119.814 11.38 119.527 11.18 119.181 11.02C118.834 10.8467 118.481 10.6933 118.121 10.56C117.667 10.4 117.214 10.2067 116.761 9.98C116.307 9.75333 115.927 9.46667 115.621 9.12C115.327 8.77333 115.181 8.32667 115.181 7.78C115.181 7.02 115.467 6.38 116.041 5.86C116.627 5.32667 117.441 5.06 118.481 5.06C119.067 5.06 119.614 5.16667 120.121 5.38C120.627 5.59333 121.061 5.84667 121.421 6.14L120.721 7.08C120.387 6.84 120.041 6.64 119.681 6.48C119.334 6.30667 118.934 6.22 118.481 6.22C117.841 6.22 117.367 6.37333 117.061 6.68C116.754 6.97333 116.601 7.31333 116.601 7.7C116.601 8.02 116.701 8.28667 116.901 8.5C117.114 8.7 117.387 8.87333 117.721 9.02C118.054 9.16667 118.407 9.31333 118.781 9.46C119.261 9.63333 119.727 9.83333 120.181 10.06C120.647 10.2733 121.034 10.56 121.341 10.92C121.647 11.28 121.801 11.7733 121.801 12.4C121.801 12.9067 121.667 13.38 121.401 13.82C121.134 14.2467 120.741 14.5933 120.221 14.86C119.701 15.1133 119.067 15.24 118.321 15.24ZM124.181 19.24C123.968 19.24 123.768 19.22 123.581 19.18C123.394 19.14 123.228 19.0933 123.081 19.04L123.361 17.86C123.468 17.9 123.588 17.9333 123.721 17.96C123.868 18 124.001 18.02 124.121 18.02C124.681 18.02 125.148 17.8067 125.521 17.38C125.894 16.9667 126.181 16.44 126.381 15.8L126.621 15.06L122.701 5.3H124.201L126.281 10.86C126.441 11.2733 126.601 11.72 126.761 12.2C126.934 12.6667 127.094 13.1267 127.241 13.58H127.321C127.468 13.14 127.614 12.6867 127.761 12.22C127.908 11.74 128.041 11.2867 128.161 10.86L129.981 5.3H131.401L127.721 15.9C127.494 16.5133 127.228 17.0733 126.921 17.58C126.614 18.0867 126.234 18.4867 125.781 18.78C125.341 19.0867 124.808 19.24 124.181 19.24ZM133.961 11.12L133.761 3.36L133.721 1.6H135.201L135.161 3.36L134.961 11.12H133.961ZM134.461 15.24C134.167 15.24 133.907 15.1333 133.681 14.92C133.467 14.7067 133.361 14.4267 133.361 14.08C133.361 13.72 133.467 13.4333 133.681 13.22C133.907 13.0067 134.167 12.9 134.461 12.9C134.767 12.9 135.027 13.0067 135.241 13.22C135.454 13.4333 135.561 13.72 135.561 14.08C135.561 14.4267 135.454 14.7067 135.241 14.92C135.027 15.1333 134.767 15.24 134.461 15.24ZM143.129 15V1.86H144.609V15H143.129ZM151.066 15.24C150.066 15.24 149.366 14.9467 148.966 14.36C148.579 13.7733 148.386 13.0133 148.386 12.08V6.5H146.926V5.4L148.446 5.3L148.626 2.56H149.846V5.3H152.506V6.5H149.846V12.12C149.846 12.72 149.952 13.1933 150.166 13.54C150.392 13.8733 150.799 14.04 151.386 14.04C151.559 14.04 151.746 14.0133 151.946 13.96C152.159 13.9067 152.346 13.8467 152.506 13.78L152.806 14.88C152.539 14.9733 152.252 15.0533 151.946 15.12C151.639 15.2 151.346 15.24 151.066 15.24ZM161.231 15.24C160.537 15.24 159.877 15.1133 159.251 14.86C158.624 14.5933 158.084 14.2733 157.631 13.9L158.371 12.92C158.797 13.2533 159.237 13.5333 159.691 13.76C160.144 13.9867 160.677 14.1 161.291 14.1C161.957 14.1 162.457 13.94 162.791 13.62C163.124 13.3 163.291 12.92 163.291 12.48C163.291 12.1333 163.177 11.8467 162.951 11.62C162.724 11.38 162.437 11.18 162.091 11.02C161.744 10.8467 161.391 10.6933 161.031 10.56C160.577 10.4 160.124 10.2067 159.671 9.98C159.217 9.75333 158.837 9.46667 158.531 9.12C158.237 8.77333 158.091 8.32667 158.091 7.78C158.091 7.02 158.377 6.38 158.951 5.86C159.537 5.32667 160.351 5.06 161.391 5.06C161.977 5.06 162.524 5.16667 163.031 5.38C163.537 5.59333 163.971 5.84667 164.331 6.14L163.631 7.08C163.297 6.84 162.951 6.64 162.591 6.48C162.244 6.30667 161.844 6.22 161.391 6.22C160.751 6.22 160.277 6.37333 159.971 6.68C159.664 6.97333 159.511 7.31333 159.511 7.7C159.511 8.02 159.611 8.28667 159.811 8.5C160.024 8.7 160.297 8.87333 160.631 9.02C160.964 9.16667 161.317 9.31333 161.691 9.46C162.171 9.63333 162.637 9.83333 163.091 10.06C163.557 10.2733 163.944 10.56 164.251 10.92C164.557 11.28 164.711 11.7733 164.711 12.4C164.711 12.9067 164.577 13.38 164.311 13.82C164.044 14.2467 163.651 14.5933 163.131 14.86C162.611 15.1133 161.977 15.24 161.231 15.24ZM170.911 15.24C170.071 15.24 169.298 15.04 168.591 14.64C167.898 14.2267 167.344 13.6467 166.931 12.9C166.518 12.14 166.311 11.2267 166.311 10.16C166.311 9.10667 166.518 8.2 166.931 7.44C167.344 6.68 167.878 6.09333 168.531 5.68C169.198 5.26667 169.904 5.06 170.651 5.06C171.451 5.06 172.138 5.24667 172.711 5.62C173.284 5.99333 173.718 6.52 174.011 7.2C174.318 7.86667 174.471 8.66667 174.471 9.6C174.471 9.76 174.464 9.92 174.451 10.08C174.451 10.2267 174.438 10.36 174.411 10.48H167.451L167.431 9.42H173.171C173.171 8.38 172.951 7.59333 172.511 7.06C172.071 6.51333 171.458 6.24 170.671 6.24C170.191 6.24 169.724 6.38 169.271 6.66C168.818 6.94 168.444 7.36667 168.151 7.94C167.858 8.51333 167.711 9.25333 167.711 10.16C167.711 11.0267 167.864 11.7467 168.171 12.32C168.478 12.8933 168.884 13.3267 169.391 13.62C169.911 13.9133 170.478 14.06 171.091 14.06C171.584 14.06 172.024 13.9867 172.411 13.84C172.811 13.6933 173.191 13.5067 173.551 13.28L174.091 14.24C173.678 14.5067 173.211 14.74 172.691 14.94C172.184 15.14 171.591 15.24 170.911 15.24ZM180.755 15.24C179.915 15.24 179.142 15.04 178.435 14.64C177.742 14.2267 177.188 13.6467 176.775 12.9C176.362 12.14 176.155 11.2267 176.155 10.16C176.155 9.10667 176.362 8.2 176.775 7.44C177.188 6.68 177.722 6.09333 178.375 5.68C179.042 5.26667 179.748 5.06 180.495 5.06C181.295 5.06 181.982 5.24667 182.555 5.62C183.128 5.99333 183.562 6.52 183.855 7.2C184.162 7.86667 184.315 8.66667 184.315 9.6C184.315 9.76 184.308 9.92 184.295 10.08C184.295 10.2267 184.282 10.36 184.255 10.48H177.295L177.275 9.42H183.015C183.015 8.38 182.795 7.59333 182.355 7.06C181.915 6.51333 181.302 6.24 180.515 6.24C180.035 6.24 179.568 6.38 179.115 6.66C178.662 6.94 178.288 7.36667 177.995 7.94C177.702 8.51333 177.555 9.25333 177.555 10.16C177.555 11.0267 177.708 11.7467 178.015 12.32C178.322 12.8933 178.728 13.3267 179.235 13.62C179.755 13.9133 180.322 14.06 180.935 14.06C181.428 14.06 181.868 13.9867 182.255 13.84C182.655 13.6933 183.035 13.5067 183.395 13.28L183.935 14.24C183.522 14.5067 183.055 14.74 182.535 14.94C182.028 15.14 181.435 15.24 180.755 15.24ZM186.759 15V5.3H187.959L188.079 6.74H188.139C188.565 6.27333 189.032 5.88 189.539 5.56C190.059 5.22667 190.599 5.06 191.159 5.06C191.919 5.06 192.505 5.23333 192.919 5.58C193.345 5.91333 193.652 6.36667 193.839 6.94C194.359 6.38 194.879 5.92667 195.399 5.58C195.932 5.23333 196.485 5.06 197.059 5.06C198.059 5.06 198.799 5.38 199.279 6.02C199.759 6.66 199.999 7.6 199.999 8.84V15H198.539V9.02C198.539 8.08667 198.385 7.40667 198.079 6.98C197.772 6.55333 197.292 6.34 196.639 6.34C196.252 6.34 195.845 6.47333 195.419 6.74C195.005 6.99333 194.565 7.38 194.099 7.9V15H192.639V9.02C192.639 8.08667 192.485 7.40667 192.179 6.98C191.885 6.55333 191.412 6.34 190.759 6.34C189.985 6.34 189.132 6.86 188.199 7.9V15H186.759ZM205.743 15.24C205.049 15.24 204.389 15.1133 203.763 14.86C203.136 14.5933 202.596 14.2733 202.143 13.9L202.882 12.92C203.309 13.2533 203.749 13.5333 204.202 13.76C204.656 13.9867 205.189 14.1 205.803 14.1C206.469 14.1 206.969 13.94 207.303 13.62C207.636 13.3 207.803 12.92 207.803 12.48C207.803 12.1333 207.689 11.8467 207.463 11.62C207.236 11.38 206.949 11.18 206.603 11.02C206.256 10.8467 205.903 10.6933 205.543 10.56C205.089 10.4 204.636 10.2067 204.183 9.98C203.729 9.75333 203.349 9.46667 203.043 9.12C202.749 8.77333 202.603 8.32667 202.603 7.78C202.603 7.02 202.889 6.38 203.463 5.86C204.049 5.32667 204.863 5.06 205.903 5.06C206.489 5.06 207.036 5.16667 207.543 5.38C208.049 5.59333 208.483 5.84667 208.843 6.14L208.143 7.08C207.809 6.84 207.463 6.64 207.103 6.48C206.756 6.30667 206.356 6.22 205.903 6.22C205.263 6.22 204.789 6.37333 204.483 6.68C204.176 6.97333 204.023 7.31333 204.023 7.7C204.023 8.02 204.123 8.28667 204.323 8.5C204.536 8.7 204.809 8.87333 205.143 9.02C205.476 9.16667 205.829 9.31333 206.203 9.46C206.683 9.63333 207.149 9.83333 207.603 10.06C208.069 10.2733 208.456 10.56 208.763 10.92C209.069 11.28 209.223 11.7733 209.223 12.4C209.223 12.9067 209.089 13.38 208.823 13.82C208.556 14.2467 208.163 14.5933 207.643 14.86C207.123 15.1133 206.489 15.24 205.743 15.24ZM217.167 15.24C216.807 15.24 216.507 15.16 216.267 15C216.027 14.8533 215.853 14.6333 215.747 14.34C215.64 14.0333 215.587 13.66 215.587 13.22V0.719999H217.027V13.34C217.027 13.58 217.073 13.7533 217.167 13.86C217.26 13.9667 217.367 14.02 217.487 14.02C217.527 14.02 217.573 14.02 217.627 14.02C217.68 14.0067 217.753 13.9933 217.847 13.98L218.047 15.1C217.94 15.1267 217.813 15.1533 217.667 15.18C217.533 15.22 217.367 15.24 217.167 15.24ZM220.587 15V5.3H222.027V15H220.587ZM221.327 3.22C221.047 3.22 220.807 3.12667 220.607 2.94C220.42 2.75333 220.327 2.50667 220.327 2.2C220.327 1.90667 220.42 1.67333 220.607 1.5C220.807 1.31333 221.047 1.22 221.327 1.22C221.62 1.22 221.86 1.31333 222.047 1.5C222.233 1.67333 222.327 1.90667 222.327 2.2C222.327 2.50667 222.233 2.75333 222.047 2.94C221.86 3.12667 221.62 3.22 221.327 3.22ZM225.43 15V0.719999H226.85V10.6H226.91L231.21 5.3H232.83L229.59 9.18L233.27 15H231.69L228.75 10.2L226.85 12.44V15H225.43ZM239.017 15.24C238.177 15.24 237.403 15.04 236.697 14.64C236.003 14.2267 235.45 13.6467 235.037 12.9C234.623 12.14 234.417 11.2267 234.417 10.16C234.417 9.10667 234.623 8.2 235.037 7.44C235.45 6.68 235.983 6.09333 236.637 5.68C237.303 5.26667 238.01 5.06 238.757 5.06C239.557 5.06 240.243 5.24667 240.817 5.62C241.39 5.99333 241.823 6.52 242.117 7.2C242.423 7.86667 242.577 8.66667 242.577 9.6C242.577 9.76 242.57 9.92 242.557 10.08C242.557 10.2267 242.543 10.36 242.517 10.48H235.557L235.537 9.42H241.277C241.277 8.38 241.057 7.59333 240.617 7.06C240.177 6.51333 239.563 6.24 238.777 6.24C238.297 6.24 237.83 6.38 237.377 6.66C236.923 6.94 236.55 7.36667 236.257 7.94C235.963 8.51333 235.817 9.25333 235.817 10.16C235.817 11.0267 235.97 11.7467 236.277 12.32C236.583 12.8933 236.99 13.3267 237.497 13.62C238.017 13.9133 238.583 14.06 239.197 14.06C239.69 14.06 240.13 13.9867 240.517 13.84C240.917 13.6933 241.297 13.5067 241.657 13.28L242.197 14.24C241.783 14.5067 241.317 14.74 240.797 14.94C240.29 15.14 239.697 15.24 239.017 15.24ZM249.044 19.24C248.831 19.24 248.631 19.22 248.444 19.18C248.258 19.14 248.091 19.0933 247.944 19.04L248.224 17.86C248.331 17.9 248.451 17.9333 248.584 17.96C248.731 18 248.864 18.02 248.984 18.02C249.544 18.02 250.011 17.8067 250.384 17.38C250.758 16.9667 251.044 16.44 251.244 15.8L251.484 15.06L247.564 5.3H249.064L251.144 10.86C251.304 11.2733 251.464 11.72 251.624 12.2C251.798 12.6667 251.958 13.1267 252.104 13.58H252.184C252.331 13.14 252.478 12.6867 252.624 12.22C252.771 11.74 252.904 11.2867 253.024 10.86L254.844 5.3H256.264L252.584 15.9C252.358 16.5133 252.091 17.0733 251.784 17.58C251.478 18.0867 251.098 18.4867 250.644 18.78C250.204 19.0867 249.671 19.24 249.044 19.24ZM261.904 15.24C261.117 15.24 260.384 15.04 259.704 14.64C259.024 14.24 258.477 13.6667 258.064 12.92C257.651 12.16 257.444 11.24 257.444 10.16C257.444 9.08 257.651 8.16 258.064 7.4C258.477 6.64 259.024 6.06 259.704 5.66C260.384 5.26 261.117 5.06 261.904 5.06C262.691 5.06 263.417 5.26 264.084 5.66C264.764 6.06 265.311 6.64 265.724 7.4C266.151 8.16 266.364 9.08 266.364 10.16C266.364 11.24 266.151 12.16 265.724 12.92C265.311 13.6667 264.764 14.24 264.084 14.64C263.417 15.04 262.691 15.24 261.904 15.24ZM261.904 14.02C262.491 14.02 263.004 13.86 263.444 13.54C263.897 13.22 264.244 12.7733 264.484 12.2C264.737 11.6133 264.864 10.9333 264.864 10.16C264.864 9.4 264.737 8.72667 264.484 8.14C264.244 7.55333 263.897 7.1 263.444 6.78C263.004 6.44667 262.491 6.28 261.904 6.28C261.331 6.28 260.817 6.44667 260.364 6.78C259.924 7.1 259.577 7.55333 259.324 8.14C259.084 8.72667 258.964 9.4 258.964 10.16C258.964 10.9333 259.084 11.6133 259.324 12.2C259.577 12.7733 259.924 13.22 260.364 13.54C260.817 13.86 261.331 14.02 261.904 14.02ZM271.805 15.24C270.805 15.24 270.065 14.92 269.585 14.28C269.105 13.64 268.865 12.7 268.865 11.46V5.3H270.305V11.28C270.305 12.2133 270.458 12.9 270.765 13.34C271.071 13.7667 271.565 13.98 272.245 13.98C272.751 13.98 273.211 13.8467 273.625 13.58C274.038 13.3 274.485 12.86 274.965 12.26V5.3H276.425V15H275.205L275.085 13.46H275.025C274.571 13.9933 274.091 14.4267 273.585 14.76C273.078 15.08 272.485 15.24 271.805 15.24ZM280.045 6.14L279.765 2.9L279.725 1.18H281.285L281.245 2.9L280.965 6.14H280.045ZM286.729 15L283.189 5.3H284.689L286.609 10.96C286.769 11.4267 286.923 11.9 287.069 12.38C287.229 12.86 287.383 13.3333 287.529 13.8H287.609C287.756 13.3333 287.909 12.86 288.069 12.38C288.229 11.9 288.383 11.4267 288.529 10.96L290.449 5.3H291.889L288.409 15H286.729ZM297.669 15.24C296.829 15.24 296.056 15.04 295.349 14.64C294.656 14.2267 294.102 13.6467 293.689 12.9C293.276 12.14 293.069 11.2267 293.069 10.16C293.069 9.10667 293.276 8.2 293.689 7.44C294.102 6.68 294.636 6.09333 295.289 5.68C295.956 5.26667 296.662 5.06 297.409 5.06C298.209 5.06 298.896 5.24667 299.469 5.62C300.042 5.99333 300.476 6.52 300.769 7.2C301.076 7.86667 301.229 8.66667 301.229 9.6C301.229 9.76 301.222 9.92 301.209 10.08C301.209 10.2267 301.196 10.36 301.169 10.48H294.209L294.189 9.42H299.929C299.929 8.38 299.709 7.59333 299.269 7.06C298.829 6.51333 298.216 6.24 297.429 6.24C296.949 6.24 296.482 6.38 296.029 6.66C295.576 6.94 295.202 7.36667 294.909 7.94C294.616 8.51333 294.469 9.25333 294.469 10.16C294.469 11.0267 294.622 11.7467 294.929 12.32C295.236 12.8933 295.642 13.3267 296.149 13.62C296.669 13.9133 297.236 14.06 297.849 14.06C298.342 14.06 298.782 13.9867 299.169 13.84C299.569 13.6933 299.949 13.5067 300.309 13.28L300.849 14.24C300.436 14.5067 299.969 14.74 299.449 14.94C298.942 15.14 298.349 15.24 297.669 15.24ZM309.197 15L306.457 5.3H307.957L309.477 11.08C309.583 11.5333 309.683 11.98 309.777 12.42C309.883 12.8467 309.977 13.2933 310.057 13.76H310.137C310.257 13.2933 310.37 12.8467 310.477 12.42C310.583 11.98 310.697 11.5333 310.817 11.08L312.377 5.3H313.837L315.417 11.08C315.537 11.5333 315.65 11.98 315.757 12.42C315.877 12.8467 315.99 13.2933 316.097 13.76H316.177C316.297 13.2933 316.403 12.8467 316.497 12.42C316.603 11.98 316.71 11.5333 316.817 11.08L318.297 5.3H319.697L317.057 15H315.257L313.777 9.58C313.67 9.11333 313.563 8.65333 313.457 8.2C313.35 7.74667 313.237 7.28 313.117 6.8H313.037C312.93 7.28 312.817 7.75333 312.697 8.22C312.59 8.68667 312.47 9.15333 312.337 9.62L310.897 15H309.197ZM324.076 15.24C323.542 15.24 323.062 15.1333 322.636 14.92C322.209 14.7067 321.869 14.4 321.616 14C321.362 13.5867 321.236 13.0867 321.236 12.5C321.236 11.4467 321.716 10.64 322.676 10.08C323.649 9.50667 325.182 9.10667 327.276 8.88C327.276 8.44 327.216 8.02 327.096 7.62C326.989 7.22 326.782 6.9 326.476 6.66C326.182 6.40667 325.756 6.28 325.196 6.28C324.609 6.28 324.062 6.39333 323.556 6.62C323.062 6.84667 322.629 7.08667 322.256 7.34L321.676 6.34C321.956 6.15333 322.289 5.96 322.676 5.76C323.062 5.56 323.489 5.39333 323.956 5.26C324.422 5.12667 324.916 5.06 325.436 5.06C326.222 5.06 326.856 5.22667 327.336 5.56C327.816 5.89333 328.162 6.35333 328.376 6.94C328.602 7.52667 328.716 8.21333 328.716 9V15H327.516L327.396 13.82H327.336C326.869 14.2067 326.362 14.54 325.816 14.82C325.269 15.1 324.689 15.24 324.076 15.24ZM324.456 14.06C324.962 14.06 325.429 13.9467 325.856 13.72C326.296 13.48 326.769 13.14 327.276 12.7V9.86C326.129 9.99333 325.222 10.18 324.556 10.42C323.889 10.6467 323.409 10.9267 323.116 11.26C322.822 11.5933 322.676 11.98 322.676 12.42C322.676 12.9933 322.849 13.4133 323.196 13.68C323.556 13.9333 323.976 14.06 324.456 14.06ZM331.895 15V5.3H333.095L333.215 6.74H333.275C333.742 6.26 334.235 5.86 334.755 5.54C335.289 5.22 335.882 5.06 336.535 5.06C337.562 5.06 338.309 5.38 338.775 6.02C339.255 6.66 339.495 7.6 339.495 8.84V15H338.035V9.02C338.035 8.08667 337.882 7.40667 337.575 6.98C337.282 6.55333 336.795 6.34 336.115 6.34C335.609 6.34 335.149 6.47333 334.735 6.74C334.322 6.99333 333.855 7.38 333.335 7.9V15H331.895ZM346.015 15.24C344.801 15.24 343.835 14.8 343.115 13.92C342.395 13.0267 342.035 11.7733 342.035 10.16C342.035 9.12 342.228 8.22 342.615 7.46C343.015 6.7 343.535 6.11333 344.175 5.7C344.815 5.27333 345.508 5.06 346.255 5.06C346.828 5.06 347.321 5.16 347.735 5.36C348.148 5.56 348.575 5.84 349.015 6.2L348.955 4.52V0.719999H350.395V15H349.195L349.075 13.82H349.015C348.641 14.2067 348.195 14.54 347.675 14.82C347.168 15.1 346.615 15.24 346.015 15.24ZM346.335 14C346.801 14 347.248 13.8867 347.675 13.66C348.101 13.42 348.528 13.0733 348.955 12.62V7.36C348.515 6.97333 348.095 6.7 347.695 6.54C347.295 6.38 346.888 6.3 346.475 6.3C345.928 6.3 345.428 6.46667 344.975 6.8C344.535 7.12 344.181 7.57333 343.915 8.16C343.661 8.73333 343.535 9.4 343.535 10.16C343.535 11.3467 343.775 12.2867 344.255 12.98C344.748 13.66 345.441 14 346.335 14ZM357.63 15.24C356.79 15.24 356.017 15.04 355.31 14.64C354.617 14.2267 354.063 13.6467 353.65 12.9C353.237 12.14 353.03 11.2267 353.03 10.16C353.03 9.10667 353.237 8.2 353.65 7.44C354.063 6.68 354.597 6.09333 355.25 5.68C355.917 5.26667 356.623 5.06 357.37 5.06C358.17 5.06 358.857 5.24667 359.43 5.62C360.003 5.99333 360.437 6.52 360.73 7.2C361.037 7.86667 361.19 8.66667 361.19 9.6C361.19 9.76 361.183 9.92 361.17 10.08C361.17 10.2267 361.157 10.36 361.13 10.48H354.17L354.15 9.42H359.89C359.89 8.38 359.67 7.59333 359.23 7.06C358.79 6.51333 358.177 6.24 357.39 6.24C356.91 6.24 356.443 6.38 355.99 6.66C355.537 6.94 355.163 7.36667 354.87 7.94C354.577 8.51333 354.43 9.25333 354.43 10.16C354.43 11.0267 354.583 11.7467 354.89 12.32C355.197 12.8933 355.603 13.3267 356.11 13.62C356.63 13.9133 357.197 14.06 357.81 14.06C358.303 14.06 358.743 13.9867 359.13 13.84C359.53 13.6933 359.91 13.5067 360.27 13.28L360.81 14.24C360.397 14.5067 359.93 14.74 359.41 14.94C358.903 15.14 358.31 15.24 357.63 15.24ZM363.634 15V5.3H364.834L364.954 7.08H365.014C365.347 6.46667 365.747 5.98 366.214 5.62C366.694 5.24667 367.214 5.06 367.774 5.06C367.974 5.06 368.154 5.08 368.314 5.12C368.474 5.14667 368.627 5.19333 368.774 5.26L368.494 6.54C368.334 6.48667 368.187 6.44667 368.054 6.42C367.934 6.39333 367.774 6.38 367.574 6.38C367.16 6.38 366.727 6.55333 366.274 6.9C365.82 7.23333 365.42 7.82667 365.074 8.68V15H363.634ZM374.27 15.24C373.43 15.24 372.657 15.04 371.95 14.64C371.257 14.2267 370.704 13.6467 370.29 12.9C369.877 12.14 369.67 11.2267 369.67 10.16C369.67 9.10667 369.877 8.2 370.29 7.44C370.704 6.68 371.237 6.09333 371.89 5.68C372.557 5.26667 373.264 5.06 374.01 5.06C374.81 5.06 375.497 5.24667 376.07 5.62C376.644 5.99333 377.077 6.52 377.37 7.2C377.677 7.86667 377.83 8.66667 377.83 9.6C377.83 9.76 377.824 9.92 377.81 10.08C377.81 10.2267 377.797 10.36 377.77 10.48H370.81L370.79 9.42H376.53C376.53 8.38 376.31 7.59333 375.87 7.06C375.43 6.51333 374.817 6.24 374.03 6.24C373.55 6.24 373.084 6.38 372.63 6.66C372.177 6.94 371.804 7.36667 371.51 7.94C371.217 8.51333 371.07 9.25333 371.07 10.16C371.07 11.0267 371.224 11.7467 371.53 12.32C371.837 12.8933 372.244 13.3267 372.75 13.62C373.27 13.9133 373.837 14.06 374.45 14.06C374.944 14.06 375.384 13.9867 375.77 13.84C376.17 13.6933 376.55 13.5067 376.91 13.28L377.45 14.24C377.037 14.5067 376.57 14.74 376.05 14.94C375.544 15.14 374.95 15.24 374.27 15.24ZM383.534 15.24C382.321 15.24 381.354 14.8 380.634 13.92C379.914 13.0267 379.554 11.7733 379.554 10.16C379.554 9.12 379.748 8.22 380.134 7.46C380.534 6.7 381.054 6.11333 381.694 5.7C382.334 5.27333 383.028 5.06 383.774 5.06C384.348 5.06 384.841 5.16 385.254 5.36C385.668 5.56 386.094 5.84 386.534 6.2L386.474 4.52V0.719999H387.914V15H386.714L386.594 13.82H386.534C386.161 14.2067 385.714 14.54 385.194 14.82C384.688 15.1 384.134 15.24 383.534 15.24ZM383.854 14C384.321 14 384.768 13.8867 385.194 13.66C385.621 13.42 386.048 13.0733 386.474 12.62V7.36C386.034 6.97333 385.614 6.7 385.214 6.54C384.814 6.38 384.408 6.3 383.994 6.3C383.448 6.3 382.948 6.46667 382.494 6.8C382.054 7.12 381.701 7.57333 381.434 8.16C381.181 8.73333 381.054 9.4 381.054 10.16C381.054 11.3467 381.294 12.2867 381.774 12.98C382.268 13.66 382.961 14 383.854 14ZM395.313 15V5.3H396.753V15H395.313ZM396.053 3.22C395.773 3.22 395.533 3.12667 395.333 2.94C395.147 2.75333 395.053 2.50667 395.053 2.2C395.053 1.90667 395.147 1.67333 395.333 1.5C395.533 1.31333 395.773 1.22 396.053 1.22C396.347 1.22 396.587 1.31333 396.773 1.5C396.96 1.67333 397.053 1.90667 397.053 2.2C397.053 2.50667 396.96 2.75333 396.773 2.94C396.587 3.12667 396.347 3.22 396.053 3.22ZM400.157 15V5.3H401.357L401.477 6.74H401.537C402.004 6.26 402.497 5.86 403.017 5.54C403.55 5.22 404.144 5.06 404.797 5.06C405.824 5.06 406.57 5.38 407.037 6.02C407.517 6.66 407.757 7.6 407.757 8.84V15H406.297V9.02C406.297 8.08667 406.144 7.40667 405.837 6.98C405.544 6.55333 405.057 6.34 404.377 6.34C403.87 6.34 403.41 6.47333 402.997 6.74C402.584 6.99333 402.117 7.38 401.597 7.9V15H400.157ZM413.956 15.24C412.956 15.24 412.256 14.9467 411.856 14.36C411.47 13.7733 411.276 13.0133 411.276 12.08V6.5H409.816V5.4L411.336 5.3L411.516 2.56H412.736V5.3H415.396V6.5H412.736V12.12C412.736 12.72 412.843 13.1933 413.056 13.54C413.283 13.8733 413.69 14.04 414.276 14.04C414.45 14.04 414.636 14.0133 414.836 13.96C415.05 13.9067 415.236 13.8467 415.396 13.78L415.696 14.88C415.43 14.9733 415.143 15.0533 414.836 15.12C414.53 15.2 414.236 15.24 413.956 15.24ZM421.338 15.24C420.551 15.24 419.818 15.04 419.138 14.64C418.458 14.24 417.911 13.6667 417.498 12.92C417.084 12.16 416.878 11.24 416.878 10.16C416.878 9.08 417.084 8.16 417.498 7.4C417.911 6.64 418.458 6.06 419.138 5.66C419.818 5.26 420.551 5.06 421.338 5.06C422.124 5.06 422.851 5.26 423.518 5.66C424.198 6.06 424.744 6.64 425.158 7.4C425.584 8.16 425.798 9.08 425.798 10.16C425.798 11.24 425.584 12.16 425.158 12.92C424.744 13.6667 424.198 14.24 423.518 14.64C422.851 15.04 422.124 15.24 421.338 15.24ZM421.338 14.02C421.924 14.02 422.438 13.86 422.878 13.54C423.331 13.22 423.678 12.7733 423.918 12.2C424.171 11.6133 424.298 10.9333 424.298 10.16C424.298 9.4 424.171 8.72667 423.918 8.14C423.678 7.55333 423.331 7.1 422.878 6.78C422.438 6.44667 421.924 6.28 421.338 6.28C420.764 6.28 420.251 6.44667 419.798 6.78C419.358 7.1 419.011 7.55333 418.758 8.14C418.518 8.72667 418.398 9.4 418.398 10.16C418.398 10.9333 418.518 11.6133 418.758 12.2C419.011 12.7733 419.358 13.22 419.798 13.54C420.251 13.86 420.764 14.02 421.338 14.02ZM435.382 15.24C434.382 15.24 433.682 14.9467 433.282 14.36C432.896 13.7733 432.702 13.0133 432.702 12.08V6.5H431.242V5.4L432.762 5.3L432.942 2.56H434.162V5.3H436.822V6.5H434.162V12.12C434.162 12.72 434.269 13.1933 434.482 13.54C434.709 13.8733 435.116 14.04 435.702 14.04C435.876 14.04 436.062 14.0133 436.262 13.96C436.476 13.9067 436.662 13.8467 436.822 13.78L437.122 14.88C436.856 14.9733 436.569 15.0533 436.262 15.12C435.956 15.2 435.662 15.24 435.382 15.24ZM439.063 15V0.719999H440.503V4.68L440.463 6.72C440.93 6.25333 441.423 5.86 441.943 5.54C442.463 5.22 443.05 5.06 443.703 5.06C444.73 5.06 445.477 5.38 445.943 6.02C446.423 6.66 446.663 7.6 446.663 8.84V15H445.203V9.02C445.203 8.08667 445.05 7.40667 444.743 6.98C444.45 6.55333 443.963 6.34 443.283 6.34C442.777 6.34 442.317 6.47333 441.903 6.74C441.49 6.99333 441.023 7.38 440.503 7.9V15H439.063ZM453.704 15.24C452.864 15.24 452.091 15.04 451.384 14.64C450.691 14.2267 450.137 13.6467 449.724 12.9C449.311 12.14 449.104 11.2267 449.104 10.16C449.104 9.10667 449.311 8.2 449.724 7.44C450.137 6.68 450.671 6.09333 451.324 5.68C451.991 5.26667 452.697 5.06 453.444 5.06C454.244 5.06 454.931 5.24667 455.504 5.62C456.077 5.99333 456.511 6.52 456.804 7.2C457.111 7.86667 457.264 8.66667 457.264 9.6C457.264 9.76 457.257 9.92 457.244 10.08C457.244 10.2267 457.231 10.36 457.204 10.48H450.244L450.224 9.42H455.964C455.964 8.38 455.744 7.59333 455.304 7.06C454.864 6.51333 454.251 6.24 453.464 6.24C452.984 6.24 452.517 6.38 452.064 6.66C451.611 6.94 451.237 7.36667 450.944 7.94C450.651 8.51333 450.504 9.25333 450.504 10.16C450.504 11.0267 450.657 11.7467 450.964 12.32C451.271 12.8933 451.677 13.3267 452.184 13.62C452.704 13.9133 453.271 14.06 453.884 14.06C454.377 14.06 454.817 13.9867 455.204 13.84C455.604 13.6933 455.984 13.5067 456.344 13.28L456.884 14.24C456.471 14.5067 456.004 14.74 455.484 14.94C454.977 15.14 454.384 15.24 453.704 15.24ZM466.972 15.24C465.758 15.24 464.792 14.8 464.072 13.92C463.352 13.0267 462.992 11.7733 462.992 10.16C462.992 9.12 463.185 8.22 463.572 7.46C463.972 6.7 464.492 6.11333 465.132 5.7C465.772 5.27333 466.465 5.06 467.212 5.06C467.785 5.06 468.278 5.16 468.692 5.36C469.105 5.56 469.532 5.84 469.972 6.2L469.912 4.52V0.719999H471.352V15H470.152L470.032 13.82H469.972C469.598 14.2067 469.152 14.54 468.632 14.82C468.125 15.1 467.572 15.24 466.972 15.24ZM467.292 14C467.758 14 468.205 13.8867 468.632 13.66C469.058 13.42 469.485 13.0733 469.912 12.62V7.36C469.472 6.97333 469.052 6.7 468.652 6.54C468.252 6.38 467.845 6.3 467.432 6.3C466.885 6.3 466.385 6.46667 465.932 6.8C465.492 7.12 465.138 7.57333 464.872 8.16C464.618 8.73333 464.492 9.4 464.492 10.16C464.492 11.3467 464.732 12.2867 465.212 12.98C465.705 13.66 466.398 14 467.292 14ZM474.747 15V5.3H476.187V15H474.747ZM475.487 3.22C475.207 3.22 474.967 3.12667 474.767 2.94C474.58 2.75333 474.487 2.50667 474.487 2.2C474.487 1.90667 474.58 1.67333 474.767 1.5C474.967 1.31333 475.207 1.22 475.487 1.22C475.78 1.22 476.02 1.31333 476.207 1.5C476.394 1.67333 476.487 1.90667 476.487 2.2C476.487 2.50667 476.394 2.75333 476.207 2.94C476.02 3.12667 475.78 3.22 475.487 3.22ZM482.831 19.52C482.031 19.52 481.331 19.4133 480.731 19.2C480.131 18.9867 479.664 18.6867 479.331 18.3C478.997 17.9133 478.831 17.4467 478.831 16.9C478.831 16.4733 478.957 16.0667 479.211 15.68C479.464 15.2933 479.811 14.9533 480.251 14.66V14.58C480.011 14.42 479.804 14.2133 479.631 13.96C479.471 13.6933 479.391 13.3733 479.391 13C479.391 12.5867 479.504 12.2267 479.731 11.92C479.971 11.6133 480.211 11.3733 480.451 11.2V11.12C480.144 10.8667 479.857 10.5133 479.591 10.06C479.337 9.60667 479.211 9.09333 479.211 8.52C479.211 7.81333 479.371 7.20667 479.691 6.7C480.024 6.18 480.457 5.78 480.991 5.5C481.537 5.20667 482.137 5.06 482.791 5.06C483.057 5.06 483.304 5.08667 483.531 5.14C483.771 5.18 483.971 5.23333 484.131 5.3H487.491V6.44H485.431C485.684 6.68 485.891 6.98 486.051 7.34C486.211 7.7 486.291 8.1 486.291 8.54C486.291 9.23333 486.131 9.83333 485.811 10.34C485.504 10.8467 485.084 11.24 484.551 11.52C484.031 11.7867 483.444 11.92 482.791 11.92C482.551 11.92 482.297 11.8933 482.031 11.84C481.777 11.7733 481.537 11.6867 481.311 11.58C481.124 11.7267 480.964 11.8933 480.831 12.08C480.711 12.2667 480.651 12.5 480.651 12.78C480.651 13.1 480.771 13.3667 481.011 13.58C481.264 13.78 481.717 13.88 482.371 13.88H484.311C485.431 13.88 486.264 14.0667 486.811 14.44C487.371 14.8 487.651 15.38 487.651 16.18C487.651 16.7667 487.451 17.3133 487.051 17.82C486.664 18.3267 486.111 18.7333 485.391 19.04C484.671 19.36 483.817 19.52 482.831 19.52ZM483.031 18.48C483.671 18.48 484.224 18.38 484.691 18.18C485.171 17.98 485.544 17.72 485.811 17.4C486.077 17.08 486.211 16.74 486.211 16.38C486.211 15.9133 486.037 15.5867 485.691 15.4C485.357 15.2133 484.857 15.12 484.191 15.12H482.411C482.264 15.12 482.077 15.1067 481.851 15.08C481.637 15.0533 481.411 15.0133 481.171 14.96C480.797 15.2267 480.524 15.5067 480.351 15.8C480.191 16.1067 480.111 16.4067 480.111 16.7C480.111 17.2467 480.371 17.68 480.891 18C481.411 18.32 482.124 18.48 483.031 18.48ZM482.791 10.92C483.177 10.92 483.531 10.82 483.851 10.62C484.184 10.42 484.451 10.14 484.651 9.78C484.851 9.42 484.951 9 484.951 8.52C484.951 8.02667 484.851 7.60667 484.651 7.26C484.464 6.9 484.204 6.62667 483.871 6.44C483.551 6.24 483.191 6.14 482.791 6.14C482.191 6.14 481.677 6.35333 481.251 6.78C480.824 7.19333 480.611 7.77333 480.611 8.52C480.611 9 480.711 9.42 480.911 9.78C481.111 10.14 481.377 10.42 481.711 10.62C482.044 10.82 482.404 10.92 482.791 10.92ZM489.591 15V5.3H491.031V15H489.591ZM490.331 3.22C490.051 3.22 489.811 3.12667 489.611 2.94C489.424 2.75333 489.331 2.50667 489.331 2.2C489.331 1.90667 489.424 1.67333 489.611 1.5C489.811 1.31333 490.051 1.22 490.331 1.22C490.624 1.22 490.864 1.31333 491.051 1.5C491.237 1.67333 491.331 1.90667 491.331 2.2C491.331 2.50667 491.237 2.75333 491.051 2.94C490.864 3.12667 490.624 3.22 490.331 3.22ZM497.374 15.24C496.374 15.24 495.674 14.9467 495.274 14.36C494.888 13.7733 494.694 13.0133 494.694 12.08V6.5H493.234V5.4L494.754 5.3L494.934 2.56H496.154V5.3H498.814V6.5H496.154V12.12C496.154 12.72 496.261 13.1933 496.474 13.54C496.701 13.8733 497.108 14.04 497.694 14.04C497.868 14.04 498.054 14.0133 498.254 13.96C498.468 13.9067 498.654 13.8467 498.814 13.78L499.114 14.88C498.848 14.9733 498.561 15.0533 498.254 15.12C497.948 15.2 497.654 15.24 497.374 15.24ZM503.255 15.24C502.722 15.24 502.242 15.1333 501.815 14.92C501.389 14.7067 501.049 14.4 500.795 14C500.542 13.5867 500.415 13.0867 500.415 12.5C500.415 11.4467 500.895 10.64 501.855 10.08C502.829 9.50667 504.362 9.10667 506.455 8.88C506.455 8.44 506.395 8.02 506.275 7.62C506.169 7.22 505.962 6.9 505.655 6.66C505.362 6.40667 504.935 6.28 504.375 6.28C503.789 6.28 503.242 6.39333 502.735 6.62C502.242 6.84667 501.809 7.08667 501.435 7.34L500.855 6.34C501.135 6.15333 501.469 5.96 501.855 5.76C502.242 5.56 502.669 5.39333 503.135 5.26C503.602 5.12667 504.095 5.06 504.615 5.06C505.402 5.06 506.035 5.22667 506.515 5.56C506.995 5.89333 507.342 6.35333 507.555 6.94C507.782 7.52667 507.895 8.21333 507.895 9V15H506.695L506.575 13.82H506.515C506.049 14.2067 505.542 14.54 504.995 14.82C504.449 15.1 503.869 15.24 503.255 15.24ZM503.635 14.06C504.142 14.06 504.609 13.9467 505.035 13.72C505.475 13.48 505.949 13.14 506.455 12.7V9.86C505.309 9.99333 504.402 10.18 503.735 10.42C503.069 10.6467 502.589 10.9267 502.295 11.26C502.002 11.5933 501.855 11.98 501.855 12.42C501.855 12.9933 502.029 13.4133 502.375 13.68C502.735 13.9333 503.155 14.06 503.635 14.06ZM512.655 15.24C512.295 15.24 511.995 15.16 511.755 15C511.515 14.8533 511.342 14.6333 511.235 14.34C511.128 14.0333 511.075 13.66 511.075 13.22V0.719999H512.515V13.34C512.515 13.58 512.562 13.7533 512.655 13.86C512.748 13.9667 512.855 14.02 512.975 14.02C513.015 14.02 513.062 14.02 513.115 14.02C513.168 14.0067 513.242 13.9933 513.335 13.98L513.535 15.1C513.428 15.1267 513.302 15.1533 513.155 15.18C513.022 15.22 512.855 15.24 512.655 15.24ZM522.879 15.24C521.879 15.24 521.139 14.92 520.659 14.28C520.179 13.64 519.939 12.7 519.939 11.46V5.3H521.379V11.28C521.379 12.2133 521.532 12.9 521.839 13.34C522.146 13.7667 522.639 13.98 523.319 13.98C523.826 13.98 524.286 13.8467 524.699 13.58C525.112 13.3 525.559 12.86 526.039 12.26V5.3H527.499V15H526.279L526.159 13.46H526.099C525.646 13.9933 525.166 14.4267 524.659 14.76C524.152 15.08 523.559 15.24 522.879 15.24ZM530.88 15V5.3H532.08L532.2 6.74H532.26C532.726 6.26 533.22 5.86 533.74 5.54C534.273 5.22 534.866 5.06 535.52 5.06C536.546 5.06 537.293 5.38 537.76 6.02C538.24 6.66 538.48 7.6 538.48 8.84V15H537.02V9.02C537.02 8.08667 536.866 7.40667 536.56 6.98C536.266 6.55333 535.78 6.34 535.1 6.34C534.593 6.34 534.133 6.47333 533.72 6.74C533.306 6.99333 532.84 7.38 532.32 7.9V15H530.88ZM541.739 15V0.719999H543.159V10.6H543.219L547.519 5.3H549.139L545.899 9.18L549.579 15H547.999L545.059 10.2L543.159 12.44V15H541.739ZM551.485 15V5.3H552.685L552.805 6.74H552.865C553.332 6.26 553.825 5.86 554.345 5.54C554.878 5.22 555.472 5.06 556.125 5.06C557.152 5.06 557.898 5.38 558.365 6.02C558.845 6.66 559.085 7.6 559.085 8.84V15H557.625V9.02C557.625 8.08667 557.472 7.40667 557.165 6.98C556.872 6.55333 556.385 6.34 555.705 6.34C555.198 6.34 554.738 6.47333 554.325 6.74C553.912 6.99333 553.445 7.38 552.925 7.9V15H551.485ZM566.045 15.24C565.258 15.24 564.525 15.04 563.845 14.64C563.165 14.24 562.618 13.6667 562.205 12.92C561.791 12.16 561.585 11.24 561.585 10.16C561.585 9.08 561.791 8.16 562.205 7.4C562.618 6.64 563.165 6.06 563.845 5.66C564.525 5.26 565.258 5.06 566.045 5.06C566.831 5.06 567.558 5.26 568.225 5.66C568.905 6.06 569.451 6.64 569.865 7.4C570.291 8.16 570.505 9.08 570.505 10.16C570.505 11.24 570.291 12.16 569.865 12.92C569.451 13.6667 568.905 14.24 568.225 14.64C567.558 15.04 566.831 15.24 566.045 15.24ZM566.045 14.02C566.631 14.02 567.145 13.86 567.585 13.54C568.038 13.22 568.385 12.7733 568.625 12.2C568.878 11.6133 569.005 10.9333 569.005 10.16C569.005 9.4 568.878 8.72667 568.625 8.14C568.385 7.55333 568.038 7.1 567.585 6.78C567.145 6.44667 566.631 6.28 566.045 6.28C565.471 6.28 564.958 6.44667 564.505 6.78C564.065 7.1 563.718 7.55333 563.465 8.14C563.225 8.72667 563.105 9.4 563.105 10.16C563.105 10.9333 563.225 11.6133 563.465 12.2C563.718 12.7733 564.065 13.22 564.505 13.54C564.958 13.86 565.471 14.02 566.045 14.02ZM574.665 15L571.925 5.3H573.425L574.945 11.08C575.052 11.5333 575.152 11.98 575.245 12.42C575.352 12.8467 575.445 13.2933 575.525 13.76H575.605C575.725 13.2933 575.839 12.8467 575.945 12.42C576.052 11.98 576.165 11.5333 576.285 11.08L577.845 5.3H579.305L580.885 11.08C581.005 11.5333 581.119 11.98 581.225 12.42C581.345 12.8467 581.459 13.2933 581.565 13.76H581.645C581.765 13.2933 581.872 12.8467 581.965 12.42C582.072 11.98 582.179 11.5333 582.285 11.08L583.765 5.3H585.165L582.525 15H580.725L579.245 9.58C579.139 9.11333 579.032 8.65333 578.925 8.2C578.819 7.74667 578.705 7.28 578.585 6.8H578.505C578.399 7.28 578.285 7.75333 578.165 8.22C578.059 8.68667 577.939 9.15333 577.805 9.62L576.365 15H574.665ZM587.345 15V5.3H588.545L588.665 6.74H588.725C589.191 6.26 589.685 5.86 590.205 5.54C590.738 5.22 591.331 5.06 591.985 5.06C593.011 5.06 593.758 5.38 594.225 6.02C594.705 6.66 594.945 7.6 594.945 8.84V15H593.485V9.02C593.485 8.08667 593.331 7.40667 593.025 6.98C592.731 6.55333 592.245 6.34 591.565 6.34C591.058 6.34 590.598 6.47333 590.185 6.74C589.771 6.99333 589.305 7.38 588.785 7.9V15H587.345ZM598.924 15.24C598.631 15.24 598.371 15.1333 598.144 14.92C597.931 14.7067 597.824 14.4267 597.824 14.08C597.824 13.72 597.931 13.4333 598.144 13.22C598.371 13.0067 598.631 12.9 598.924 12.9C599.231 12.9 599.491 13.0067 599.704 13.22C599.917 13.4333 600.024 13.72 600.024 14.08C600.024 14.4267 599.917 14.7067 599.704 14.92C599.491 15.1333 599.231 15.24 598.924 15.24ZM4.6 41V29.12H0.56V27.86H10.1V29.12H6.08V41H4.6ZM12.3641 41V26.72H13.8041V30.68L13.7641 32.72C14.2307 32.2533 14.7241 31.86 15.2441 31.54C15.7641 31.22 16.3507 31.06 17.0041 31.06C18.0307 31.06 18.7774 31.38 19.2441 32.02C19.7241 32.66 19.9641 33.6 19.9641 34.84V41H18.5041V35.02C18.5041 34.0867 18.3507 33.4067 18.0441 32.98C17.7507 32.5533 17.2641 32.34 16.5841 32.34C16.0774 32.34 15.6174 32.4733 15.2041 32.74C14.7907 32.9933 14.3241 33.38 13.8041 33.9V41H12.3641ZM27.0048 41.24C26.1648 41.24 25.3915 41.04 24.6848 40.64C23.9915 40.2267 23.4382 39.6467 23.0248 38.9C22.6115 38.14 22.4048 37.2267 22.4048 36.16C22.4048 35.1067 22.6115 34.2 23.0248 33.44C23.4382 32.68 23.9715 32.0933 24.6248 31.68C25.2915 31.2667 25.9982 31.06 26.7448 31.06C27.5448 31.06 28.2315 31.2467 28.8048 31.62C29.3782 31.9933 29.8115 32.52 30.1048 33.2C30.4115 33.8667 30.5648 34.6667 30.5648 35.6C30.5648 35.76 30.5582 35.92 30.5448 36.08C30.5448 36.2267 30.5315 36.36 30.5048 36.48H23.5448L23.5248 35.42H29.2648C29.2648 34.38 29.0448 33.5933 28.6048 33.06C28.1648 32.5133 27.5515 32.24 26.7648 32.24C26.2848 32.24 25.8182 32.38 25.3648 32.66C24.9115 32.94 24.5382 33.3667 24.2448 33.94C23.9515 34.5133 23.8048 35.2533 23.8048 36.16C23.8048 37.0267 23.9582 37.7467 24.2648 38.32C24.5715 38.8933 24.9782 39.3267 25.4848 39.62C26.0048 39.9133 26.5715 40.06 27.1848 40.06C27.6782 40.06 28.1182 39.9867 28.5048 39.84C28.9048 39.6933 29.2848 39.5067 29.6448 39.28L30.1848 40.24C29.7715 40.5067 29.3048 40.74 28.7848 40.94C28.2782 41.14 27.6848 41.24 27.0048 41.24ZM37.0125 45.16V31.3H38.2125L38.3325 32.46H38.3925C38.8325 32.0733 39.3192 31.7467 39.8525 31.48C40.3992 31.2 40.9592 31.06 41.5325 31.06C42.3725 31.06 43.0792 31.2667 43.6525 31.68C44.2258 32.08 44.6525 32.6533 44.9325 33.4C45.2258 34.1333 45.3725 35 45.3725 36C45.3725 37.1067 45.1725 38.0533 44.7725 38.84C44.3858 39.6133 43.8725 40.2067 43.2325 40.62C42.5925 41.0333 41.9058 41.24 41.1725 41.24C40.7325 41.24 40.2792 41.14 39.8125 40.94C39.3458 40.74 38.8792 40.46 38.4125 40.1L38.4525 41.82V45.16H37.0125ZM40.9325 40C41.5058 40 42.0125 39.84 42.4525 39.52C42.8925 39.2 43.2392 38.74 43.4925 38.14C43.7458 37.54 43.8725 36.8333 43.8725 36.02C43.8725 35.2867 43.7792 34.64 43.5925 34.08C43.4192 33.52 43.1325 33.0867 42.7325 32.78C42.3458 32.46 41.8325 32.3 41.1925 32.3C40.7658 32.3 40.3258 32.42 39.8725 32.66C39.4325 32.8867 38.9592 33.2333 38.4525 33.7V38.94C38.9325 39.3267 39.3858 39.6 39.8125 39.76C40.2392 39.92 40.6125 40 40.9325 40ZM50.2477 41.24C49.7143 41.24 49.2343 41.1333 48.8077 40.92C48.381 40.7067 48.041 40.4 47.7877 40C47.5343 39.5867 47.4077 39.0867 47.4077 38.5C47.4077 37.4467 47.8877 36.64 48.8477 36.08C49.821 35.5067 51.3543 35.1067 53.4477 34.88C53.4477 34.44 53.3877 34.02 53.2677 33.62C53.161 33.22 52.9543 32.9 52.6477 32.66C52.3543 32.4067 51.9277 32.28 51.3677 32.28C50.781 32.28 50.2343 32.3933 49.7277 32.62C49.2343 32.8467 48.801 33.0867 48.4277 33.34L47.8477 32.34C48.1277 32.1533 48.461 31.96 48.8477 31.76C49.2343 31.56 49.661 31.3933 50.1277 31.26C50.5943 31.1267 51.0877 31.06 51.6077 31.06C52.3943 31.06 53.0277 31.2267 53.5077 31.56C53.9877 31.8933 54.3343 32.3533 54.5477 32.94C54.7743 33.5267 54.8877 34.2133 54.8877 35V41H53.6877L53.5677 39.82H53.5077C53.041 40.2067 52.5343 40.54 51.9877 40.82C51.441 41.1 50.861 41.24 50.2477 41.24ZM50.6277 40.06C51.1343 40.06 51.601 39.9467 52.0277 39.72C52.4677 39.48 52.941 39.14 53.4477 38.7V35.86C52.301 35.9933 51.3943 36.18 50.7277 36.42C50.061 36.6467 49.581 36.9267 49.2877 37.26C48.9943 37.5933 48.8477 37.98 48.8477 38.42C48.8477 38.9933 49.021 39.4133 49.3677 39.68C49.7277 39.9333 50.1477 40.06 50.6277 40.06ZM61.3072 45.52C60.5072 45.52 59.8072 45.4133 59.2072 45.2C58.6072 44.9867 58.1405 44.6867 57.8072 44.3C57.4739 43.9133 57.3072 43.4467 57.3072 42.9C57.3072 42.4733 57.4339 42.0667 57.6872 41.68C57.9405 41.2933 58.2872 40.9533 58.7272 40.66V40.58C58.4872 40.42 58.2805 40.2133 58.1072 39.96C57.9472 39.6933 57.8672 39.3733 57.8672 39C57.8672 38.5867 57.9805 38.2267 58.2072 37.92C58.4472 37.6133 58.6872 37.3733 58.9272 37.2V37.12C58.6205 36.8667 58.3339 36.5133 58.0672 36.06C57.8139 35.6067 57.6872 35.0933 57.6872 34.52C57.6872 33.8133 57.8472 33.2067 58.1672 32.7C58.5005 32.18 58.9339 31.78 59.4672 31.5C60.0139 31.2067 60.6139 31.06 61.2672 31.06C61.5339 31.06 61.7805 31.0867 62.0072 31.14C62.2472 31.18 62.4472 31.2333 62.6072 31.3H65.9672V32.44H63.9072C64.1605 32.68 64.3672 32.98 64.5272 33.34C64.6872 33.7 64.7672 34.1 64.7672 34.54C64.7672 35.2333 64.6072 35.8333 64.2872 36.34C63.9805 36.8467 63.5605 37.24 63.0272 37.52C62.5072 37.7867 61.9205 37.92 61.2672 37.92C61.0272 37.92 60.7739 37.8933 60.5072 37.84C60.2539 37.7733 60.0139 37.6867 59.7872 37.58C59.6005 37.7267 59.4405 37.8933 59.3072 38.08C59.1872 38.2667 59.1272 38.5 59.1272 38.78C59.1272 39.1 59.2472 39.3667 59.4872 39.58C59.7405 39.78 60.1939 39.88 60.8472 39.88H62.7872C63.9072 39.88 64.7405 40.0667 65.2872 40.44C65.8472 40.8 66.1272 41.38 66.1272 42.18C66.1272 42.7667 65.9272 43.3133 65.5272 43.82C65.1405 44.3267 64.5872 44.7333 63.8672 45.04C63.1472 45.36 62.2939 45.52 61.3072 45.52ZM61.5072 44.48C62.1472 44.48 62.7005 44.38 63.1672 44.18C63.6472 43.98 64.0205 43.72 64.2872 43.4C64.5539 43.08 64.6872 42.74 64.6872 42.38C64.6872 41.9133 64.5139 41.5867 64.1672 41.4C63.8339 41.2133 63.3339 41.12 62.6672 41.12H60.8872C60.7405 41.12 60.5539 41.1067 60.3272 41.08C60.1139 41.0533 59.8872 41.0133 59.6472 40.96C59.2739 41.2267 59.0005 41.5067 58.8272 41.8C58.6672 42.1067 58.5872 42.4067 58.5872 42.7C58.5872 43.2467 58.8472 43.68 59.3672 44C59.8872 44.32 60.6005 44.48 61.5072 44.48ZM61.2672 36.92C61.6539 36.92 62.0072 36.82 62.3272 36.62C62.6605 36.42 62.9272 36.14 63.1272 35.78C63.3272 35.42 63.4272 35 63.4272 34.52C63.4272 34.0267 63.3272 33.6067 63.1272 33.26C62.9405 32.9 62.6805 32.6267 62.3472 32.44C62.0272 32.24 61.6672 32.14 61.2672 32.14C60.6672 32.14 60.1539 32.3533 59.7272 32.78C59.3005 33.1933 59.0872 33.7733 59.0872 34.52C59.0872 35 59.1872 35.42 59.3872 35.78C59.5872 36.14 59.8539 36.42 60.1872 36.62C60.5205 36.82 60.8805 36.92 61.2672 36.92ZM71.9072 41.24C71.0672 41.24 70.2939 41.04 69.5872 40.64C68.8939 40.2267 68.3405 39.6467 67.9272 38.9C67.5139 38.14 67.3072 37.2267 67.3072 36.16C67.3072 35.1067 67.5139 34.2 67.9272 33.44C68.3405 32.68 68.8739 32.0933 69.5272 31.68C70.1939 31.2667 70.9005 31.06 71.6472 31.06C72.4472 31.06 73.1339 31.2467 73.7072 31.62C74.2805 31.9933 74.7139 32.52 75.0072 33.2C75.3139 33.8667 75.4672 34.6667 75.4672 35.6C75.4672 35.76 75.4605 35.92 75.4472 36.08C75.4472 36.2267 75.4339 36.36 75.4072 36.48H68.4472L68.4272 35.42H74.1672C74.1672 34.38 73.9472 33.5933 73.5072 33.06C73.0672 32.5133 72.4539 32.24 71.6672 32.24C71.1872 32.24 70.7205 32.38 70.2672 32.66C69.8139 32.94 69.4405 33.3667 69.1472 33.94C68.8539 34.5133 68.7072 35.2533 68.7072 36.16C68.7072 37.0267 68.8605 37.7467 69.1672 38.32C69.4739 38.8933 69.8805 39.3267 70.3872 39.62C70.9072 39.9133 71.4739 40.06 72.0872 40.06C72.5805 40.06 73.0205 39.9867 73.4072 39.84C73.8072 39.6933 74.1872 39.5067 74.5472 39.28L75.0872 40.24C74.6739 40.5067 74.2072 40.74 73.6872 40.94C73.1805 41.14 72.5872 41.24 71.9072 41.24ZM81.9348 45.24C81.7215 45.24 81.5215 45.22 81.3348 45.18C81.1482 45.14 80.9815 45.0933 80.8348 45.04L81.1148 43.86C81.2215 43.9 81.3415 43.9333 81.4748 43.96C81.6215 44 81.7548 44.02 81.8748 44.02C82.4348 44.02 82.9015 43.8067 83.2748 43.38C83.6482 42.9667 83.9348 42.44 84.1348 41.8L84.3748 41.06L80.4548 31.3H81.9548L84.0348 36.86C84.1948 37.2733 84.3548 37.72 84.5148 38.2C84.6882 38.6667 84.8482 39.1267 84.9948 39.58H85.0748C85.2215 39.14 85.3682 38.6867 85.5148 38.22C85.6615 37.74 85.7948 37.2867 85.9148 36.86L87.7348 31.3H89.1548L85.4748 41.9C85.2482 42.5133 84.9815 43.0733 84.6748 43.58C84.3682 44.0867 83.9882 44.4867 83.5348 44.78C83.0948 45.0867 82.5615 45.24 81.9348 45.24ZM94.7945 41.24C94.0079 41.24 93.2745 41.04 92.5945 40.64C91.9145 40.24 91.3679 39.6667 90.9545 38.92C90.5412 38.16 90.3345 37.24 90.3345 36.16C90.3345 35.08 90.5412 34.16 90.9545 33.4C91.3679 32.64 91.9145 32.06 92.5945 31.66C93.2745 31.26 94.0079 31.06 94.7945 31.06C95.5812 31.06 96.3079 31.26 96.9745 31.66C97.6545 32.06 98.2012 32.64 98.6145 33.4C99.0412 34.16 99.2545 35.08 99.2545 36.16C99.2545 37.24 99.0412 38.16 98.6145 38.92C98.2012 39.6667 97.6545 40.24 96.9745 40.64C96.3079 41.04 95.5812 41.24 94.7945 41.24ZM94.7945 40.02C95.3812 40.02 95.8945 39.86 96.3345 39.54C96.7879 39.22 97.1345 38.7733 97.3745 38.2C97.6279 37.6133 97.7545 36.9333 97.7545 36.16C97.7545 35.4 97.6279 34.7267 97.3745 34.14C97.1345 33.5533 96.7879 33.1 96.3345 32.78C95.8945 32.4467 95.3812 32.28 94.7945 32.28C94.2212 32.28 93.7079 32.4467 93.2545 32.78C92.8145 33.1 92.4679 33.5533 92.2145 34.14C91.9745 34.7267 91.8545 35.4 91.8545 36.16C91.8545 36.9333 91.9745 37.6133 92.2145 38.2C92.4679 38.7733 92.8145 39.22 93.2545 39.54C93.7079 39.86 94.2212 40.02 94.7945 40.02ZM104.695 41.24C103.695 41.24 102.955 40.92 102.475 40.28C101.995 39.64 101.755 38.7 101.755 37.46V31.3H103.195V37.28C103.195 38.2133 103.349 38.9 103.655 39.34C103.962 39.7667 104.455 39.98 105.135 39.98C105.642 39.98 106.102 39.8467 106.515 39.58C106.929 39.3 107.375 38.86 107.855 38.26V31.3H109.315V41H108.095L107.975 39.46H107.915C107.462 39.9933 106.982 40.4267 106.475 40.76C105.969 41.08 105.375 41.24 104.695 41.24ZM112.936 32.14L112.656 28.9L112.616 27.18H114.176L114.136 28.9L113.856 32.14H112.936ZM117.54 41V31.3H118.74L118.86 33.08H118.92C119.253 32.4667 119.653 31.98 120.12 31.62C120.6 31.2467 121.12 31.06 121.68 31.06C121.88 31.06 122.06 31.08 122.22 31.12C122.38 31.1467 122.533 31.1933 122.68 31.26L122.4 32.54C122.24 32.4867 122.093 32.4467 121.96 32.42C121.84 32.3933 121.68 32.38 121.48 32.38C121.067 32.38 120.633 32.5533 120.18 32.9C119.727 33.2333 119.327 33.8267 118.98 34.68V41H117.54ZM128.177 41.24C127.337 41.24 126.563 41.04 125.857 40.64C125.163 40.2267 124.61 39.6467 124.197 38.9C123.783 38.14 123.577 37.2267 123.577 36.16C123.577 35.1067 123.783 34.2 124.197 33.44C124.61 32.68 125.143 32.0933 125.797 31.68C126.463 31.2667 127.17 31.06 127.917 31.06C128.717 31.06 129.403 31.2467 129.977 31.62C130.55 31.9933 130.983 32.52 131.277 33.2C131.583 33.8667 131.737 34.6667 131.737 35.6C131.737 35.76 131.73 35.92 131.717 36.08C131.717 36.2267 131.703 36.36 131.677 36.48H124.717L124.697 35.42H130.437C130.437 34.38 130.217 33.5933 129.777 33.06C129.337 32.5133 128.723 32.24 127.937 32.24C127.457 32.24 126.99 32.38 126.537 32.66C126.083 32.94 125.71 33.3667 125.417 33.94C125.123 34.5133 124.977 35.2533 124.977 36.16C124.977 37.0267 125.13 37.7467 125.437 38.32C125.743 38.8933 126.15 39.3267 126.657 39.62C127.177 39.9133 127.743 40.06 128.357 40.06C128.85 40.06 129.29 39.9867 129.677 39.84C130.077 39.6933 130.457 39.5067 130.817 39.28L131.357 40.24C130.943 40.5067 130.477 40.74 129.957 40.94C129.45 41.14 128.857 41.24 128.177 41.24ZM140.664 41.24C139.971 41.24 139.311 41.1133 138.684 40.86C138.058 40.5933 137.518 40.2733 137.064 39.9L137.804 38.92C138.231 39.2533 138.671 39.5333 139.124 39.76C139.578 39.9867 140.111 40.1 140.724 40.1C141.391 40.1 141.891 39.94 142.224 39.62C142.558 39.3 142.724 38.92 142.724 38.48C142.724 38.1333 142.611 37.8467 142.384 37.62C142.158 37.38 141.871 37.18 141.524 37.02C141.178 36.8467 140.824 36.6933 140.464 36.56C140.011 36.4 139.558 36.2067 139.104 35.98C138.651 35.7533 138.271 35.4667 137.964 35.12C137.671 34.7733 137.524 34.3267 137.524 33.78C137.524 33.02 137.811 32.38 138.384 31.86C138.971 31.3267 139.784 31.06 140.824 31.06C141.411 31.06 141.958 31.1667 142.464 31.38C142.971 31.5933 143.404 31.8467 143.764 32.14L143.064 33.08C142.731 32.84 142.384 32.64 142.024 32.48C141.678 32.3067 141.278 32.22 140.824 32.22C140.184 32.22 139.711 32.3733 139.404 32.68C139.098 32.9733 138.944 33.3133 138.944 33.7C138.944 34.02 139.044 34.2867 139.244 34.5C139.458 34.7 139.731 34.8733 140.064 35.02C140.398 35.1667 140.751 35.3133 141.124 35.46C141.604 35.6333 142.071 35.8333 142.524 36.06C142.991 36.2733 143.378 36.56 143.684 36.92C143.991 37.28 144.144 37.7733 144.144 38.4C144.144 38.9067 144.011 39.38 143.744 39.82C143.478 40.2467 143.084 40.5933 142.564 40.86C142.044 41.1133 141.411 41.24 140.664 41.24ZM150.345 41.24C149.505 41.24 148.731 41.04 148.025 40.64C147.331 40.2267 146.778 39.6467 146.365 38.9C145.951 38.14 145.745 37.2267 145.745 36.16C145.745 35.1067 145.951 34.2 146.365 33.44C146.778 32.68 147.311 32.0933 147.965 31.68C148.631 31.2667 149.338 31.06 150.085 31.06C150.885 31.06 151.571 31.2467 152.145 31.62C152.718 31.9933 153.151 32.52 153.445 33.2C153.751 33.8667 153.905 34.6667 153.905 35.6C153.905 35.76 153.898 35.92 153.885 36.08C153.885 36.2267 153.871 36.36 153.845 36.48H146.885L146.865 35.42H152.605C152.605 34.38 152.385 33.5933 151.945 33.06C151.505 32.5133 150.891 32.24 150.105 32.24C149.625 32.24 149.158 32.38 148.705 32.66C148.251 32.94 147.878 33.3667 147.585 33.94C147.291 34.5133 147.145 35.2533 147.145 36.16C147.145 37.0267 147.298 37.7467 147.605 38.32C147.911 38.8933 148.318 39.3267 148.825 39.62C149.345 39.9133 149.911 40.06 150.525 40.06C151.018 40.06 151.458 39.9867 151.845 39.84C152.245 39.6933 152.625 39.5067 152.985 39.28L153.525 40.24C153.111 40.5067 152.645 40.74 152.125 40.94C151.618 41.14 151.025 41.24 150.345 41.24ZM158.548 41.24C158.015 41.24 157.535 41.1333 157.108 40.92C156.682 40.7067 156.342 40.4 156.088 40C155.835 39.5867 155.708 39.0867 155.708 38.5C155.708 37.4467 156.188 36.64 157.148 36.08C158.122 35.5067 159.655 35.1067 161.748 34.88C161.748 34.44 161.688 34.02 161.568 33.62C161.462 33.22 161.255 32.9 160.948 32.66C160.655 32.4067 160.228 32.28 159.668 32.28C159.082 32.28 158.535 32.3933 158.028 32.62C157.535 32.8467 157.102 33.0867 156.728 33.34L156.148 32.34C156.428 32.1533 156.762 31.96 157.148 31.76C157.535 31.56 157.962 31.3933 158.428 31.26C158.895 31.1267 159.388 31.06 159.908 31.06C160.695 31.06 161.328 31.2267 161.808 31.56C162.288 31.8933 162.635 32.3533 162.848 32.94C163.075 33.5267 163.188 34.2133 163.188 35V41H161.988L161.868 39.82H161.808C161.342 40.2067 160.835 40.54 160.288 40.82C159.742 41.1 159.162 41.24 158.548 41.24ZM158.928 40.06C159.435 40.06 159.902 39.9467 160.328 39.72C160.768 39.48 161.242 39.14 161.748 38.7V35.86C160.602 35.9933 159.695 36.18 159.028 36.42C158.362 36.6467 157.882 36.9267 157.588 37.26C157.295 37.5933 157.148 37.98 157.148 38.42C157.148 38.9933 157.322 39.4133 157.668 39.68C158.028 39.9333 158.448 40.06 158.928 40.06ZM166.368 41V31.3H167.568L167.688 33.08H167.748C168.081 32.4667 168.481 31.98 168.948 31.62C169.428 31.2467 169.948 31.06 170.508 31.06C170.708 31.06 170.888 31.08 171.048 31.12C171.208 31.1467 171.361 31.1933 171.508 31.26L171.228 32.54C171.068 32.4867 170.921 32.4467 170.788 32.42C170.668 32.3933 170.508 32.38 170.308 32.38C169.895 32.38 169.461 32.5533 169.008 32.9C168.555 33.2333 168.155 33.8267 167.808 34.68V41H166.368ZM176.925 41.24C176.072 41.24 175.305 41.04 174.625 40.64C173.945 40.24 173.405 39.6667 173.005 38.92C172.605 38.16 172.405 37.24 172.405 36.16C172.405 35.08 172.618 34.16 173.045 33.4C173.485 32.64 174.052 32.06 174.745 31.66C175.438 31.26 176.198 31.06 177.025 31.06C177.665 31.06 178.212 31.18 178.665 31.42C179.118 31.6467 179.512 31.9133 179.845 32.22L179.085 33.18C178.805 32.9133 178.498 32.7 178.165 32.54C177.845 32.3667 177.485 32.28 177.085 32.28C176.472 32.28 175.925 32.4467 175.445 32.78C174.978 33.1 174.605 33.5533 174.325 34.14C174.058 34.7267 173.925 35.4 173.925 36.16C173.925 36.9333 174.052 37.6133 174.305 38.2C174.572 38.7733 174.938 39.22 175.405 39.54C175.872 39.86 176.418 40.02 177.045 40.02C177.512 40.02 177.945 39.92 178.345 39.72C178.745 39.52 179.098 39.2867 179.405 39.02L180.045 40C179.618 40.3867 179.138 40.6933 178.605 40.92C178.072 41.1333 177.512 41.24 176.925 41.24ZM182.247 41V26.72H183.687V30.68L183.647 32.72C184.114 32.2533 184.607 31.86 185.127 31.54C185.647 31.22 186.234 31.06 186.887 31.06C187.914 31.06 188.66 31.38 189.127 32.02C189.607 32.66 189.847 33.6 189.847 34.84V41H188.387V35.02C188.387 34.0867 188.234 33.4067 187.927 32.98C187.634 32.5533 187.147 32.34 186.467 32.34C185.96 32.34 185.5 32.4733 185.087 32.74C184.674 32.9933 184.207 33.38 183.687 33.9V41H182.247ZM193.048 41V31.3H194.488V41H193.048ZM193.788 29.22C193.508 29.22 193.268 29.1267 193.068 28.94C192.881 28.7533 192.788 28.5067 192.788 28.2C192.788 27.9067 192.881 27.6733 193.068 27.5C193.268 27.3133 193.508 27.22 193.788 27.22C194.081 27.22 194.321 27.3133 194.508 27.5C194.694 27.6733 194.788 27.9067 194.788 28.2C194.788 28.5067 194.694 28.7533 194.508 28.94C194.321 29.1267 194.081 29.22 193.788 29.22ZM197.891 41V31.3H199.091L199.211 32.74H199.271C199.738 32.26 200.231 31.86 200.751 31.54C201.285 31.22 201.878 31.06 202.531 31.06C203.558 31.06 204.305 31.38 204.771 32.02C205.251 32.66 205.491 33.6 205.491 34.84V41H204.031V35.02C204.031 34.0867 203.878 33.4067 203.571 32.98C203.278 32.5533 202.791 32.34 202.111 32.34C201.605 32.34 201.145 32.4733 200.731 32.74C200.318 32.9933 199.851 33.38 199.331 33.9V41H197.891ZM211.991 45.52C211.191 45.52 210.491 45.4133 209.891 45.2C209.291 44.9867 208.824 44.6867 208.491 44.3C208.157 43.9133 207.991 43.4467 207.991 42.9C207.991 42.4733 208.117 42.0667 208.371 41.68C208.624 41.2933 208.971 40.9533 209.411 40.66V40.58C209.171 40.42 208.964 40.2133 208.791 39.96C208.631 39.6933 208.551 39.3733 208.551 39C208.551 38.5867 208.664 38.2267 208.891 37.92C209.131 37.6133 209.371 37.3733 209.611 37.2V37.12C209.304 36.8667 209.017 36.5133 208.751 36.06C208.497 35.6067 208.371 35.0933 208.371 34.52C208.371 33.8133 208.531 33.2067 208.851 32.7C209.184 32.18 209.617 31.78 210.151 31.5C210.697 31.2067 211.297 31.06 211.951 31.06C212.217 31.06 212.464 31.0867 212.691 31.14C212.931 31.18 213.131 31.2333 213.291 31.3H216.651V32.44H214.591C214.844 32.68 215.051 32.98 215.211 33.34C215.371 33.7 215.451 34.1 215.451 34.54C215.451 35.2333 215.291 35.8333 214.971 36.34C214.664 36.8467 214.244 37.24 213.711 37.52C213.191 37.7867 212.604 37.92 211.951 37.92C211.711 37.92 211.457 37.8933 211.191 37.84C210.937 37.7733 210.697 37.6867 210.471 37.58C210.284 37.7267 210.124 37.8933 209.991 38.08C209.871 38.2667 209.811 38.5 209.811 38.78C209.811 39.1 209.931 39.3667 210.171 39.58C210.424 39.78 210.877 39.88 211.531 39.88H213.471C214.591 39.88 215.424 40.0667 215.971 40.44C216.531 40.8 216.811 41.38 216.811 42.18C216.811 42.7667 216.611 43.3133 216.211 43.82C215.824 44.3267 215.271 44.7333 214.551 45.04C213.831 45.36 212.977 45.52 211.991 45.52ZM212.191 44.48C212.831 44.48 213.384 44.38 213.851 44.18C214.331 43.98 214.704 43.72 214.971 43.4C215.237 43.08 215.371 42.74 215.371 42.38C215.371 41.9133 215.197 41.5867 214.851 41.4C214.517 41.2133 214.017 41.12 213.351 41.12H211.571C211.424 41.12 211.237 41.1067 211.011 41.08C210.797 41.0533 210.571 41.0133 210.331 40.96C209.957 41.2267 209.684 41.5067 209.511 41.8C209.351 42.1067 209.271 42.4067 209.271 42.7C209.271 43.2467 209.531 43.68 210.051 44C210.571 44.32 211.284 44.48 212.191 44.48ZM211.951 36.92C212.337 36.92 212.691 36.82 213.011 36.62C213.344 36.42 213.611 36.14 213.811 35.78C214.011 35.42 214.111 35 214.111 34.52C214.111 34.0267 214.011 33.6067 213.811 33.26C213.624 32.9 213.364 32.6267 213.031 32.44C212.711 32.24 212.351 32.14 211.951 32.14C211.351 32.14 210.837 32.3533 210.411 32.78C209.984 33.1933 209.771 33.7733 209.771 34.52C209.771 35 209.871 35.42 210.071 35.78C210.271 36.14 210.537 36.42 210.871 36.62C211.204 36.82 211.564 36.92 211.951 36.92ZM222.975 41V29.62C222.975 28.9667 223.075 28.4067 223.275 27.94C223.475 27.4733 223.775 27.1133 224.175 26.86C224.588 26.6067 225.101 26.48 225.715 26.48C225.995 26.48 226.268 26.5133 226.535 26.58C226.815 26.6333 227.061 26.7067 227.275 26.8L226.955 27.92C226.768 27.8267 226.581 27.7667 226.395 27.74C226.208 27.7 226.021 27.68 225.835 27.68C225.368 27.68 225.015 27.8467 224.775 28.18C224.548 28.5133 224.435 29 224.435 29.64V41H222.975ZM221.655 32.5V31.4L223.035 31.3H226.535V32.5H221.655ZM232.138 41.24C231.352 41.24 230.618 41.04 229.938 40.64C229.258 40.24 228.712 39.6667 228.298 38.92C227.885 38.16 227.678 37.24 227.678 36.16C227.678 35.08 227.885 34.16 228.298 33.4C228.712 32.64 229.258 32.06 229.938 31.66C230.618 31.26 231.352 31.06 232.138 31.06C232.925 31.06 233.652 31.26 234.318 31.66C234.998 32.06 235.545 32.64 235.958 33.4C236.385 34.16 236.598 35.08 236.598 36.16C236.598 37.24 236.385 38.16 235.958 38.92C235.545 39.6667 234.998 40.24 234.318 40.64C233.652 41.04 232.925 41.24 232.138 41.24ZM232.138 40.02C232.725 40.02 233.238 39.86 233.678 39.54C234.132 39.22 234.478 38.7733 234.718 38.2C234.972 37.6133 235.098 36.9333 235.098 36.16C235.098 35.4 234.972 34.7267 234.718 34.14C234.478 33.5533 234.132 33.1 233.678 32.78C233.238 32.4467 232.725 32.28 232.138 32.28C231.565 32.28 231.052 32.4467 230.598 32.78C230.158 33.1 229.812 33.5533 229.558 34.14C229.318 34.7267 229.198 35.4 229.198 36.16C229.198 36.9333 229.318 37.6133 229.558 38.2C229.812 38.7733 230.158 39.22 230.598 39.54C231.052 39.86 231.565 40.02 232.138 40.02ZM239.239 41V31.3H240.439L240.559 33.08H240.619C240.952 32.4667 241.352 31.98 241.819 31.62C242.299 31.2467 242.819 31.06 243.379 31.06C243.579 31.06 243.759 31.08 243.919 31.12C244.079 31.1467 244.232 31.1933 244.379 31.26L244.099 32.54C243.939 32.4867 243.792 32.4467 243.659 32.42C243.539 32.3933 243.379 32.38 243.179 32.38C242.766 32.38 242.332 32.5533 241.879 32.9C241.426 33.2333 241.026 33.8267 240.679 34.68V41H239.239ZM252.52 41.24C251.827 41.24 251.167 41.1133 250.54 40.86C249.913 40.5933 249.373 40.2733 248.92 39.9L249.66 38.92C250.087 39.2533 250.527 39.5333 250.98 39.76C251.433 39.9867 251.967 40.1 252.58 40.1C253.247 40.1 253.747 39.94 254.08 39.62C254.413 39.3 254.58 38.92 254.58 38.48C254.58 38.1333 254.467 37.8467 254.24 37.62C254.013 37.38 253.727 37.18 253.38 37.02C253.033 36.8467 252.68 36.6933 252.32 36.56C251.867 36.4 251.413 36.2067 250.96 35.98C250.507 35.7533 250.127 35.4667 249.82 35.12C249.527 34.7733 249.38 34.3267 249.38 33.78C249.38 33.02 249.667 32.38 250.24 31.86C250.827 31.3267 251.64 31.06 252.68 31.06C253.267 31.06 253.813 31.1667 254.32 31.38C254.827 31.5933 255.26 31.8467 255.62 32.14L254.92 33.08C254.587 32.84 254.24 32.64 253.88 32.48C253.533 32.3067 253.133 32.22 252.68 32.22C252.04 32.22 251.567 32.3733 251.26 32.68C250.953 32.9733 250.8 33.3133 250.8 33.7C250.8 34.02 250.9 34.2867 251.1 34.5C251.313 34.7 251.587 34.8733 251.92 35.02C252.253 35.1667 252.607 35.3133 252.98 35.46C253.46 35.6333 253.927 35.8333 254.38 36.06C254.847 36.2733 255.233 36.56 255.54 36.92C255.847 37.28 256 37.7733 256 38.4C256 38.9067 255.867 39.38 255.6 39.82C255.333 40.2467 254.94 40.5933 254.42 40.86C253.9 41.1133 253.267 41.24 252.52 41.24ZM262.2 41.24C261.36 41.24 260.587 41.04 259.88 40.64C259.187 40.2267 258.633 39.6467 258.22 38.9C257.807 38.14 257.6 37.2267 257.6 36.16C257.6 35.1067 257.807 34.2 258.22 33.44C258.633 32.68 259.167 32.0933 259.82 31.68C260.487 31.2667 261.193 31.06 261.94 31.06C262.74 31.06 263.427 31.2467 264 31.62C264.573 31.9933 265.007 32.52 265.3 33.2C265.607 33.8667 265.76 34.6667 265.76 35.6C265.76 35.76 265.753 35.92 265.74 36.08C265.74 36.2267 265.727 36.36 265.7 36.48H258.74L258.72 35.42H264.46C264.46 34.38 264.24 33.5933 263.8 33.06C263.36 32.5133 262.747 32.24 261.96 32.24C261.48 32.24 261.013 32.38 260.56 32.66C260.107 32.94 259.733 33.3667 259.44 33.94C259.147 34.5133 259 35.2533 259 36.16C259 37.0267 259.153 37.7467 259.46 38.32C259.767 38.8933 260.173 39.3267 260.68 39.62C261.2 39.9133 261.767 40.06 262.38 40.06C262.873 40.06 263.313 39.9867 263.7 39.84C264.1 39.6933 264.48 39.5067 264.84 39.28L265.38 40.24C264.967 40.5067 264.5 40.74 263.98 40.94C263.473 41.14 262.88 41.24 262.2 41.24ZM272.044 41.24C271.204 41.24 270.431 41.04 269.724 40.64C269.031 40.2267 268.477 39.6467 268.064 38.9C267.651 38.14 267.444 37.2267 267.444 36.16C267.444 35.1067 267.651 34.2 268.064 33.44C268.477 32.68 269.011 32.0933 269.664 31.68C270.331 31.2667 271.037 31.06 271.784 31.06C272.584 31.06 273.271 31.2467 273.844 31.62C274.417 31.9933 274.851 32.52 275.144 33.2C275.451 33.8667 275.604 34.6667 275.604 35.6C275.604 35.76 275.597 35.92 275.584 36.08C275.584 36.2267 275.571 36.36 275.544 36.48H268.584L268.564 35.42H274.304C274.304 34.38 274.084 33.5933 273.644 33.06C273.204 32.5133 272.591 32.24 271.804 32.24C271.324 32.24 270.857 32.38 270.404 32.66C269.951 32.94 269.577 33.3667 269.284 33.94C268.991 34.5133 268.844 35.2533 268.844 36.16C268.844 37.0267 268.997 37.7467 269.304 38.32C269.611 38.8933 270.017 39.3267 270.524 39.62C271.044 39.9133 271.611 40.06 272.224 40.06C272.717 40.06 273.157 39.9867 273.544 39.84C273.944 39.6933 274.324 39.5067 274.684 39.28L275.224 40.24C274.811 40.5067 274.344 40.74 273.824 40.94C273.317 41.14 272.724 41.24 272.044 41.24ZM278.048 41V31.3H279.248L279.368 32.74H279.428C279.854 32.2733 280.321 31.88 280.828 31.56C281.348 31.2267 281.888 31.06 282.448 31.06C283.208 31.06 283.794 31.2333 284.208 31.58C284.634 31.9133 284.941 32.3667 285.128 32.94C285.648 32.38 286.168 31.9267 286.688 31.58C287.221 31.2333 287.774 31.06 288.348 31.06C289.348 31.06 290.088 31.38 290.568 32.02C291.048 32.66 291.288 33.6 291.288 34.84V41H289.828V35.02C289.828 34.0867 289.674 33.4067 289.368 32.98C289.061 32.5533 288.581 32.34 287.928 32.34C287.541 32.34 287.134 32.4733 286.708 32.74C286.294 32.9933 285.854 33.38 285.388 33.9V41H283.928V35.02C283.928 34.0867 283.774 33.4067 283.468 32.98C283.174 32.5533 282.701 32.34 282.048 32.34C281.274 32.34 280.421 32.86 279.488 33.9V41H278.048ZM297.032 41.24C296.338 41.24 295.678 41.1133 295.052 40.86C294.425 40.5933 293.885 40.2733 293.432 39.9L294.172 38.92C294.598 39.2533 295.038 39.5333 295.492 39.76C295.945 39.9867 296.478 40.1 297.092 40.1C297.758 40.1 298.258 39.94 298.592 39.62C298.925 39.3 299.092 38.92 299.092 38.48C299.092 38.1333 298.978 37.8467 298.752 37.62C298.525 37.38 298.238 37.18 297.892 37.02C297.545 36.8467 297.192 36.6933 296.832 36.56C296.378 36.4 295.925 36.2067 295.472 35.98C295.018 35.7533 294.638 35.4667 294.332 35.12C294.038 34.7733 293.892 34.3267 293.892 33.78C293.892 33.02 294.178 32.38 294.752 31.86C295.338 31.3267 296.152 31.06 297.192 31.06C297.778 31.06 298.325 31.1667 298.832 31.38C299.338 31.5933 299.772 31.8467 300.132 32.14L299.432 33.08C299.098 32.84 298.752 32.64 298.392 32.48C298.045 32.3067 297.645 32.22 297.192 32.22C296.552 32.22 296.078 32.3733 295.772 32.68C295.465 32.9733 295.312 33.3133 295.312 33.7C295.312 34.02 295.412 34.2867 295.612 34.5C295.825 34.7 296.098 34.8733 296.432 35.02C296.765 35.1667 297.118 35.3133 297.492 35.46C297.972 35.6333 298.438 35.8333 298.892 36.06C299.358 36.2733 299.745 36.56 300.052 36.92C300.358 37.28 300.512 37.7733 300.512 38.4C300.512 38.9067 300.378 39.38 300.112 39.82C299.845 40.2467 299.452 40.5933 298.932 40.86C298.412 41.1133 297.778 41.24 297.032 41.24ZM309.816 41.24C308.816 41.24 308.116 40.9467 307.716 40.36C307.329 39.7733 307.136 39.0133 307.136 38.08V32.5H305.676V31.4L307.196 31.3L307.376 28.56H308.596V31.3H311.256V32.5H308.596V38.12C308.596 38.72 308.702 39.1933 308.916 39.54C309.142 39.8733 309.549 40.04 310.136 40.04C310.309 40.04 310.496 40.0133 310.696 39.96C310.909 39.9067 311.096 39.8467 311.256 39.78L311.556 40.88C311.289 40.9733 311.002 41.0533 310.696 41.12C310.389 41.2 310.096 41.24 309.816 41.24ZM317.197 41.24C316.41 41.24 315.677 41.04 314.997 40.64C314.317 40.24 313.77 39.6667 313.357 38.92C312.944 38.16 312.737 37.24 312.737 36.16C312.737 35.08 312.944 34.16 313.357 33.4C313.77 32.64 314.317 32.06 314.997 31.66C315.677 31.26 316.41 31.06 317.197 31.06C317.984 31.06 318.71 31.26 319.377 31.66C320.057 32.06 320.604 32.64 321.017 33.4C321.444 34.16 321.657 35.08 321.657 36.16C321.657 37.24 321.444 38.16 321.017 38.92C320.604 39.6667 320.057 40.24 319.377 40.64C318.71 41.04 317.984 41.24 317.197 41.24ZM317.197 40.02C317.784 40.02 318.297 39.86 318.737 39.54C319.19 39.22 319.537 38.7733 319.777 38.2C320.03 37.6133 320.157 36.9333 320.157 36.16C320.157 35.4 320.03 34.7267 319.777 34.14C319.537 33.5533 319.19 33.1 318.737 32.78C318.297 32.4467 317.784 32.28 317.197 32.28C316.624 32.28 316.11 32.4467 315.657 32.78C315.217 33.1 314.87 33.5533 314.617 34.14C314.377 34.7267 314.257 35.4 314.257 36.16C314.257 36.9333 314.377 37.6133 314.617 38.2C314.87 38.7733 315.217 39.22 315.657 39.54C316.11 39.86 316.624 40.02 317.197 40.02ZM332.462 41.24C332.008 41.24 331.535 41.1333 331.042 40.92C330.562 40.6933 330.102 40.3867 329.662 40H329.602L329.462 41H328.302V26.72H329.742V30.68L329.702 32.46C330.155 32.06 330.648 31.7267 331.182 31.46C331.715 31.1933 332.262 31.06 332.822 31.06C333.662 31.06 334.368 31.2667 334.942 31.68C335.515 32.08 335.942 32.6533 336.222 33.4C336.515 34.1333 336.662 35 336.662 36C336.662 37.1067 336.462 38.0533 336.062 38.84C335.675 39.6133 335.162 40.2067 334.522 40.62C333.882 41.0333 333.195 41.24 332.462 41.24ZM332.222 40C332.795 40 333.302 39.84 333.742 39.52C334.182 39.2 334.528 38.74 334.782 38.14C335.035 37.54 335.162 36.8333 335.162 36.02C335.162 35.2867 335.068 34.64 334.882 34.08C334.708 33.52 334.422 33.0867 334.022 32.78C333.635 32.46 333.122 32.3 332.482 32.3C332.055 32.3 331.615 32.42 331.162 32.66C330.708 32.8867 330.235 33.2333 329.742 33.7V38.94C330.195 39.3267 330.642 39.6 331.082 39.76C331.522 39.92 331.902 40 332.222 40ZM343.157 41.24C342.317 41.24 341.544 41.04 340.837 40.64C340.144 40.2267 339.591 39.6467 339.177 38.9C338.764 38.14 338.557 37.2267 338.557 36.16C338.557 35.1067 338.764 34.2 339.177 33.44C339.591 32.68 340.124 32.0933 340.777 31.68C341.444 31.2667 342.151 31.06 342.897 31.06C343.697 31.06 344.384 31.2467 344.957 31.62C345.531 31.9933 345.964 32.52 346.257 33.2C346.564 33.8667 346.717 34.6667 346.717 35.6C346.717 35.76 346.711 35.92 346.697 36.08C346.697 36.2267 346.684 36.36 346.657 36.48H339.697L339.677 35.42H345.417C345.417 34.38 345.197 33.5933 344.757 33.06C344.317 32.5133 343.704 32.24 342.917 32.24C342.437 32.24 341.971 32.38 341.517 32.66C341.064 32.94 340.691 33.3667 340.397 33.94C340.104 34.5133 339.957 35.2533 339.957 36.16C339.957 37.0267 340.111 37.7467 340.417 38.32C340.724 38.8933 341.131 39.3267 341.637 39.62C342.157 39.9133 342.724 40.06 343.337 40.06C343.831 40.06 344.271 39.9867 344.657 39.84C345.057 39.6933 345.437 39.5067 345.797 39.28L346.337 40.24C345.924 40.5067 345.457 40.74 344.937 40.94C344.431 41.14 343.837 41.24 343.157 41.24ZM353.165 45.16V31.3H354.365L354.485 32.46H354.545C354.985 32.0733 355.472 31.7467 356.005 31.48C356.552 31.2 357.112 31.06 357.685 31.06C358.525 31.06 359.232 31.2667 359.805 31.68C360.378 32.08 360.805 32.6533 361.085 33.4C361.378 34.1333 361.525 35 361.525 36C361.525 37.1067 361.325 38.0533 360.925 38.84C360.538 39.6133 360.025 40.2067 359.385 40.62C358.745 41.0333 358.058 41.24 357.325 41.24C356.885 41.24 356.432 41.14 355.965 40.94C355.498 40.74 355.032 40.46 354.565 40.1L354.605 41.82V45.16H353.165ZM357.085 40C357.658 40 358.165 39.84 358.605 39.52C359.045 39.2 359.392 38.74 359.645 38.14C359.898 37.54 360.025 36.8333 360.025 36.02C360.025 35.2867 359.932 34.64 359.745 34.08C359.572 33.52 359.285 33.0867 358.885 32.78C358.498 32.46 357.985 32.3 357.345 32.3C356.918 32.3 356.478 32.42 356.025 32.66C355.585 32.8867 355.112 33.2333 354.605 33.7V38.94C355.085 39.3267 355.538 39.6 355.965 39.76C356.392 39.92 356.765 40 357.085 40ZM365.78 41.24C365.42 41.24 365.12 41.16 364.88 41C364.64 40.8533 364.467 40.6333 364.36 40.34C364.253 40.0333 364.2 39.66 364.2 39.22V26.72H365.64V39.34C365.64 39.58 365.687 39.7533 365.78 39.86C365.873 39.9667 365.98 40.02 366.1 40.02C366.14 40.02 366.187 40.02 366.24 40.02C366.293 40.0067 366.367 39.9933 366.46 39.98L366.66 41.1C366.553 41.1267 366.427 41.1533 366.28 41.18C366.147 41.22 365.98 41.24 365.78 41.24ZM371.4 41.24C370.867 41.24 370.387 41.1333 369.96 40.92C369.533 40.7067 369.193 40.4 368.94 40C368.687 39.5867 368.56 39.0867 368.56 38.5C368.56 37.4467 369.04 36.64 370 36.08C370.973 35.5067 372.507 35.1067 374.6 34.88C374.6 34.44 374.54 34.02 374.42 33.62C374.313 33.22 374.107 32.9 373.8 32.66C373.507 32.4067 373.08 32.28 372.52 32.28C371.933 32.28 371.387 32.3933 370.88 32.62C370.387 32.8467 369.953 33.0867 369.58 33.34L369 32.34C369.28 32.1533 369.613 31.96 370 31.76C370.387 31.56 370.813 31.3933 371.28 31.26C371.747 31.1267 372.24 31.06 372.76 31.06C373.547 31.06 374.18 31.2267 374.66 31.56C375.14 31.8933 375.487 32.3533 375.7 32.94C375.927 33.5267 376.04 34.2133 376.04 35V41H374.84L374.72 39.82H374.66C374.193 40.2067 373.687 40.54 373.14 40.82C372.593 41.1 372.013 41.24 371.4 41.24ZM371.78 40.06C372.287 40.06 372.753 39.9467 373.18 39.72C373.62 39.48 374.093 39.14 374.6 38.7V35.86C373.453 35.9933 372.547 36.18 371.88 36.42C371.213 36.6467 370.733 36.9267 370.44 37.26C370.147 37.5933 370 37.98 370 38.42C370 38.9933 370.173 39.4133 370.52 39.68C370.88 39.9333 371.3 40.06 371.78 40.06ZM379.24 45.24C379.026 45.24 378.826 45.22 378.64 45.18C378.453 45.14 378.286 45.0933 378.14 45.04L378.42 43.86C378.526 43.9 378.646 43.9333 378.78 43.96C378.926 44 379.06 44.02 379.18 44.02C379.74 44.02 380.206 43.8067 380.58 43.38C380.953 42.9667 381.24 42.44 381.44 41.8L381.68 41.06L377.76 31.3H379.26L381.34 36.86C381.5 37.2733 381.66 37.72 381.82 38.2C381.993 38.6667 382.153 39.1267 382.3 39.58H382.38C382.526 39.14 382.673 38.6867 382.82 38.22C382.966 37.74 383.1 37.2867 383.22 36.86L385.04 31.3H386.46L382.78 41.9C382.553 42.5133 382.286 43.0733 381.98 43.58C381.673 44.0867 381.293 44.4867 380.84 44.78C380.4 45.0867 379.866 45.24 379.24 45.24ZM388.399 41V31.3H389.839V41H388.399ZM389.139 29.22C388.859 29.22 388.619 29.1267 388.419 28.94C388.233 28.7533 388.139 28.5067 388.139 28.2C388.139 27.9067 388.233 27.6733 388.419 27.5C388.619 27.3133 388.859 27.22 389.139 27.22C389.433 27.22 389.673 27.3133 389.859 27.5C390.046 27.6733 390.139 27.9067 390.139 28.2C390.139 28.5067 390.046 28.7533 389.859 28.94C389.673 29.1267 389.433 29.22 389.139 29.22ZM393.243 41V31.3H394.443L394.563 32.74H394.623C395.09 32.26 395.583 31.86 396.103 31.54C396.636 31.22 397.23 31.06 397.883 31.06C398.91 31.06 399.656 31.38 400.123 32.02C400.603 32.66 400.843 33.6 400.843 34.84V41H399.383V35.02C399.383 34.0867 399.23 33.4067 398.923 32.98C398.63 32.5533 398.143 32.34 397.463 32.34C396.956 32.34 396.496 32.4733 396.083 32.74C395.67 32.9933 395.203 33.38 394.683 33.9V41H393.243ZM407.342 45.52C406.542 45.52 405.842 45.4133 405.242 45.2C404.642 44.9867 404.176 44.6867 403.842 44.3C403.509 43.9133 403.342 43.4467 403.342 42.9C403.342 42.4733 403.469 42.0667 403.722 41.68C403.976 41.2933 404.322 40.9533 404.762 40.66V40.58C404.522 40.42 404.316 40.2133 404.142 39.96C403.982 39.6933 403.902 39.3733 403.902 39C403.902 38.5867 404.016 38.2267 404.242 37.92C404.482 37.6133 404.722 37.3733 404.962 37.2V37.12C404.656 36.8667 404.369 36.5133 404.102 36.06C403.849 35.6067 403.722 35.0933 403.722 34.52C403.722 33.8133 403.882 33.2067 404.202 32.7C404.536 32.18 404.969 31.78 405.502 31.5C406.049 31.2067 406.649 31.06 407.302 31.06C407.569 31.06 407.816 31.0867 408.042 31.14C408.282 31.18 408.482 31.2333 408.642 31.3H412.002V32.44H409.942C410.196 32.68 410.402 32.98 410.562 33.34C410.722 33.7 410.802 34.1 410.802 34.54C410.802 35.2333 410.642 35.8333 410.322 36.34C410.016 36.8467 409.596 37.24 409.062 37.52C408.542 37.7867 407.956 37.92 407.302 37.92C407.062 37.92 406.809 37.8933 406.542 37.84C406.289 37.7733 406.049 37.6867 405.822 37.58C405.636 37.7267 405.476 37.8933 405.342 38.08C405.222 38.2667 405.162 38.5 405.162 38.78C405.162 39.1 405.282 39.3667 405.522 39.58C405.776 39.78 406.229 39.88 406.882 39.88H408.822C409.942 39.88 410.776 40.0667 411.322 40.44C411.882 40.8 412.162 41.38 412.162 42.18C412.162 42.7667 411.962 43.3133 411.562 43.82C411.176 44.3267 410.622 44.7333 409.902 45.04C409.182 45.36 408.329 45.52 407.342 45.52ZM407.542 44.48C408.182 44.48 408.736 44.38 409.202 44.18C409.682 43.98 410.056 43.72 410.322 43.4C410.589 43.08 410.722 42.74 410.722 42.38C410.722 41.9133 410.549 41.5867 410.202 41.4C409.869 41.2133 409.369 41.12 408.702 41.12H406.922C406.776 41.12 406.589 41.1067 406.362 41.08C406.149 41.0533 405.922 41.0133 405.682 40.96C405.309 41.2267 405.036 41.5067 404.862 41.8C404.702 42.1067 404.622 42.4067 404.622 42.7C404.622 43.2467 404.882 43.68 405.402 44C405.922 44.32 406.636 44.48 407.542 44.48ZM407.302 36.92C407.689 36.92 408.042 36.82 408.362 36.62C408.696 36.42 408.962 36.14 409.162 35.78C409.362 35.42 409.462 35 409.462 34.52C409.462 34.0267 409.362 33.6067 409.162 33.26C408.976 32.9 408.716 32.6267 408.382 32.44C408.062 32.24 407.702 32.14 407.302 32.14C406.702 32.14 406.189 32.3533 405.762 32.78C405.336 33.1933 405.122 33.7733 405.122 34.52C405.122 35 405.222 35.42 405.422 35.78C405.622 36.14 405.889 36.42 406.222 36.62C406.556 36.82 406.916 36.92 407.302 36.92ZM418.106 41V26.72H419.546V30.68L419.506 32.72C419.973 32.2533 420.466 31.86 420.986 31.54C421.506 31.22 422.093 31.06 422.746 31.06C423.773 31.06 424.52 31.38 424.986 32.02C425.466 32.66 425.706 33.6 425.706 34.84V41H424.246V35.02C424.246 34.0867 424.093 33.4067 423.786 32.98C423.493 32.5533 423.006 32.34 422.326 32.34C421.82 32.34 421.36 32.4733 420.946 32.74C420.533 32.9933 420.066 33.38 419.546 33.9V41H418.106ZM428.907 41V31.3H430.347V41H428.907ZM429.647 29.22C429.367 29.22 429.127 29.1267 428.927 28.94C428.74 28.7533 428.647 28.5067 428.647 28.2C428.647 27.9067 428.74 27.6733 428.927 27.5C429.127 27.3133 429.367 27.22 429.647 27.22C429.94 27.22 430.18 27.3133 430.367 27.5C430.554 27.6733 430.647 27.9067 430.647 28.2C430.647 28.5067 430.554 28.7533 430.367 28.94C430.18 29.1267 429.94 29.22 429.647 29.22ZM437.011 41.24C435.797 41.24 434.831 40.8 434.111 39.92C433.391 39.0267 433.031 37.7733 433.031 36.16C433.031 35.12 433.224 34.22 433.611 33.46C434.011 32.7 434.531 32.1133 435.171 31.7C435.811 31.2733 436.504 31.06 437.251 31.06C437.824 31.06 438.317 31.16 438.731 31.36C439.144 31.56 439.571 31.84 440.011 32.2L439.951 30.52V26.72H441.391V41H440.191L440.071 39.82H440.011C439.637 40.2067 439.191 40.54 438.671 40.82C438.164 41.1 437.611 41.24 437.011 41.24ZM437.331 40C437.797 40 438.244 39.8867 438.671 39.66C439.097 39.42 439.524 39.0733 439.951 38.62V33.36C439.511 32.9733 439.091 32.7 438.691 32.54C438.291 32.38 437.884 32.3 437.471 32.3C436.924 32.3 436.424 32.4667 435.971 32.8C435.531 33.12 435.177 33.5733 434.911 34.16C434.657 34.7333 434.531 35.4 434.531 36.16C434.531 37.3467 434.771 38.2867 435.251 38.98C435.744 39.66 436.437 40 437.331 40ZM448.626 41.24C447.786 41.24 447.013 41.04 446.306 40.64C445.613 40.2267 445.059 39.6467 444.646 38.9C444.233 38.14 444.026 37.2267 444.026 36.16C444.026 35.1067 444.233 34.2 444.646 33.44C445.059 32.68 445.593 32.0933 446.246 31.68C446.913 31.2667 447.619 31.06 448.366 31.06C449.166 31.06 449.853 31.2467 450.426 31.62C450.999 31.9933 451.433 32.52 451.726 33.2C452.033 33.8667 452.186 34.6667 452.186 35.6C452.186 35.76 452.179 35.92 452.166 36.08C452.166 36.2267 452.153 36.36 452.126 36.48H445.166L445.146 35.42H450.886C450.886 34.38 450.666 33.5933 450.226 33.06C449.786 32.5133 449.173 32.24 448.386 32.24C447.906 32.24 447.439 32.38 446.986 32.66C446.533 32.94 446.159 33.3667 445.866 33.94C445.573 34.5133 445.426 35.2533 445.426 36.16C445.426 37.0267 445.579 37.7467 445.886 38.32C446.193 38.8933 446.599 39.3267 447.106 39.62C447.626 39.9133 448.193 40.06 448.806 40.06C449.299 40.06 449.739 39.9867 450.126 39.84C450.526 39.6933 450.906 39.5067 451.266 39.28L451.806 40.24C451.393 40.5067 450.926 40.74 450.406 40.94C449.899 41.14 449.306 41.24 448.626 41.24ZM460.834 41.24C460.3 41.24 459.82 41.1333 459.394 40.92C458.967 40.7067 458.627 40.4 458.374 40C458.12 39.5867 457.994 39.0867 457.994 38.5C457.994 37.4467 458.474 36.64 459.434 36.08C460.407 35.5067 461.94 35.1067 464.034 34.88C464.034 34.44 463.974 34.02 463.854 33.62C463.747 33.22 463.54 32.9 463.234 32.66C462.94 32.4067 462.514 32.28 461.954 32.28C461.367 32.28 460.82 32.3933 460.314 32.62C459.82 32.8467 459.387 33.0867 459.014 33.34L458.434 32.34C458.714 32.1533 459.047 31.96 459.434 31.76C459.82 31.56 460.247 31.3933 460.714 31.26C461.18 31.1267 461.674 31.06 462.194 31.06C462.98 31.06 463.614 31.2267 464.094 31.56C464.574 31.8933 464.92 32.3533 465.134 32.94C465.36 33.5267 465.474 34.2133 465.474 35V41H464.274L464.154 39.82H464.094C463.627 40.2067 463.12 40.54 462.574 40.82C462.027 41.1 461.447 41.24 460.834 41.24ZM461.214 40.06C461.72 40.06 462.187 39.9467 462.614 39.72C463.054 39.48 463.527 39.14 464.034 38.7V35.86C462.887 35.9933 461.98 36.18 461.314 36.42C460.647 36.6467 460.167 36.9267 459.874 37.26C459.58 37.5933 459.434 37.98 459.434 38.42C459.434 38.9933 459.607 39.4133 459.954 39.68C460.314 39.9333 460.734 40.06 461.214 40.06ZM468.653 41V31.3H469.853L469.973 32.74H470.033C470.5 32.26 470.993 31.86 471.513 31.54C472.046 31.22 472.64 31.06 473.293 31.06C474.32 31.06 475.066 31.38 475.533 32.02C476.013 32.66 476.253 33.6 476.253 34.84V41H474.793V35.02C474.793 34.0867 474.64 33.4067 474.333 32.98C474.04 32.5533 473.553 32.34 472.873 32.34C472.366 32.34 471.906 32.4733 471.493 32.74C471.08 32.9933 470.613 33.38 470.093 33.9V41H468.653ZM482.773 41.24C481.559 41.24 480.593 40.8 479.873 39.92C479.153 39.0267 478.793 37.7733 478.793 36.16C478.793 35.12 478.986 34.22 479.373 33.46C479.773 32.7 480.293 32.1133 480.933 31.7C481.573 31.2733 482.266 31.06 483.013 31.06C483.586 31.06 484.079 31.16 484.493 31.36C484.906 31.56 485.333 31.84 485.773 32.2L485.713 30.52V26.72H487.153V41H485.953L485.833 39.82H485.773C485.399 40.2067 484.953 40.54 484.433 40.82C483.926 41.1 483.373 41.24 482.773 41.24ZM483.092 40C483.559 40 484.006 39.8867 484.433 39.66C484.859 39.42 485.286 39.0733 485.713 38.62V33.36C485.273 32.9733 484.853 32.7 484.453 32.54C484.053 32.38 483.646 32.3 483.233 32.3C482.686 32.3 482.186 32.4667 481.733 32.8C481.293 33.12 480.939 33.5733 480.673 34.16C480.419 34.7333 480.293 35.4 480.293 36.16C480.293 37.3467 480.533 38.2867 481.013 38.98C481.506 39.66 482.199 40 483.092 40ZM497.032 41.24C496.338 41.24 495.678 41.1133 495.052 40.86C494.425 40.5933 493.885 40.2733 493.432 39.9L494.172 38.92C494.598 39.2533 495.038 39.5333 495.492 39.76C495.945 39.9867 496.478 40.1 497.092 40.1C497.758 40.1 498.258 39.94 498.592 39.62C498.925 39.3 499.092 38.92 499.092 38.48C499.092 38.1333 498.978 37.8467 498.752 37.62C498.525 37.38 498.238 37.18 497.892 37.02C497.545 36.8467 497.192 36.6933 496.832 36.56C496.378 36.4 495.925 36.2067 495.472 35.98C495.018 35.7533 494.638 35.4667 494.332 35.12C494.038 34.7733 493.892 34.3267 493.892 33.78C493.892 33.02 494.178 32.38 494.752 31.86C495.338 31.3267 496.152 31.06 497.192 31.06C497.778 31.06 498.325 31.1667 498.832 31.38C499.338 31.5933 499.772 31.8467 500.132 32.14L499.432 33.08C499.098 32.84 498.752 32.64 498.392 32.48C498.045 32.3067 497.645 32.22 497.192 32.22C496.552 32.22 496.078 32.3733 495.772 32.68C495.465 32.9733 495.312 33.3133 495.312 33.7C495.312 34.02 495.412 34.2867 495.612 34.5C495.825 34.7 496.098 34.8733 496.432 35.02C496.765 35.1667 497.118 35.3133 497.492 35.46C497.972 35.6333 498.438 35.8333 498.892 36.06C499.358 36.2733 499.745 36.56 500.052 36.92C500.358 37.28 500.512 37.7733 500.512 38.4C500.512 38.9067 500.378 39.38 500.112 39.82C499.845 40.2467 499.452 40.5933 498.932 40.86C498.412 41.1133 497.778 41.24 497.032 41.24ZM506.712 41.24C505.872 41.24 505.099 41.04 504.392 40.64C503.699 40.2267 503.145 39.6467 502.732 38.9C502.319 38.14 502.112 37.2267 502.112 36.16C502.112 35.1067 502.319 34.2 502.732 33.44C503.145 32.68 503.679 32.0933 504.332 31.68C504.999 31.2667 505.705 31.06 506.452 31.06C507.252 31.06 507.939 31.2467 508.512 31.62C509.085 31.9933 509.519 32.52 509.812 33.2C510.119 33.8667 510.272 34.6667 510.272 35.6C510.272 35.76 510.265 35.92 510.252 36.08C510.252 36.2267 510.239 36.36 510.212 36.48H503.252L503.232 35.42H508.972C508.972 34.38 508.752 33.5933 508.312 33.06C507.872 32.5133 507.259 32.24 506.472 32.24C505.992 32.24 505.525 32.38 505.072 32.66C504.619 32.94 504.245 33.3667 503.952 33.94C503.659 34.5133 503.512 35.2533 503.512 36.16C503.512 37.0267 503.665 37.7467 503.972 38.32C504.279 38.8933 504.685 39.3267 505.192 39.62C505.712 39.9133 506.279 40.06 506.892 40.06C507.385 40.06 507.825 39.9867 508.212 39.84C508.612 39.6933 508.992 39.5067 509.352 39.28L509.892 40.24C509.479 40.5067 509.012 40.74 508.492 40.94C507.985 41.14 507.392 41.24 506.712 41.24ZM516.556 41.24C515.716 41.24 514.942 41.04 514.236 40.64C513.542 40.2267 512.989 39.6467 512.576 38.9C512.162 38.14 511.956 37.2267 511.956 36.16C511.956 35.1067 512.162 34.2 512.576 33.44C512.989 32.68 513.522 32.0933 514.176 31.68C514.842 31.2667 515.549 31.06 516.296 31.06C517.096 31.06 517.782 31.2467 518.356 31.62C518.929 31.9933 519.362 32.52 519.656 33.2C519.962 33.8667 520.116 34.6667 520.116 35.6C520.116 35.76 520.109 35.92 520.096 36.08C520.096 36.2267 520.082 36.36 520.056 36.48H513.096L513.076 35.42H518.816C518.816 34.38 518.596 33.5933 518.156 33.06C517.716 32.5133 517.102 32.24 516.316 32.24C515.836 32.24 515.369 32.38 514.916 32.66C514.462 32.94 514.089 33.3667 513.796 33.94C513.502 34.5133 513.356 35.2533 513.356 36.16C513.356 37.0267 513.509 37.7467 513.816 38.32C514.122 38.8933 514.529 39.3267 515.036 39.62C515.556 39.9133 516.122 40.06 516.736 40.06C517.229 40.06 517.669 39.9867 518.056 39.84C518.456 39.6933 518.836 39.5067 519.196 39.28L519.736 40.24C519.322 40.5067 518.856 40.74 518.336 40.94C517.829 41.14 517.236 41.24 516.556 41.24ZM522.559 41V26.72H523.979V36.6H524.039L528.339 31.3H529.959L526.719 35.18L530.399 41H528.819L525.879 36.2L523.979 38.44V41H522.559ZM537.829 41L535.089 31.3H536.589L538.109 37.08C538.216 37.5333 538.316 37.98 538.409 38.42C538.516 38.8467 538.609 39.2933 538.689 39.76H538.769C538.889 39.2933 539.003 38.8467 539.109 38.42C539.216 37.98 539.329 37.5333 539.449 37.08L541.009 31.3H542.469L544.049 37.08C544.169 37.5333 544.283 37.98 544.389 38.42C544.509 38.8467 544.623 39.2933 544.729 39.76H544.809C544.929 39.2933 545.036 38.8467 545.129 38.42C545.236 37.98 545.343 37.5333 545.449 37.08L546.929 31.3H548.329L545.689 41H543.889L542.409 35.58C542.303 35.1133 542.196 34.6533 542.089 34.2C541.983 33.7467 541.869 33.28 541.749 32.8H541.669C541.563 33.28 541.449 33.7533 541.329 34.22C541.223 34.6867 541.103 35.1533 540.969 35.62L539.529 41H537.829ZM550.509 41V31.3H551.949V41H550.509ZM551.249 29.22C550.969 29.22 550.729 29.1267 550.529 28.94C550.342 28.7533 550.249 28.5067 550.249 28.2C550.249 27.9067 550.342 27.6733 550.529 27.5C550.729 27.3133 550.969 27.22 551.249 27.22C551.542 27.22 551.782 27.3133 551.969 27.5C552.155 27.6733 552.249 27.9067 552.249 28.2C552.249 28.5067 552.155 28.7533 551.969 28.94C551.782 29.1267 551.542 29.22 551.249 29.22ZM558.292 41.24C557.292 41.24 556.592 40.9467 556.192 40.36C555.806 39.7733 555.612 39.0133 555.612 38.08V32.5H554.152V31.4L555.672 31.3L555.852 28.56H557.072V31.3H559.732V32.5H557.072V38.12C557.072 38.72 557.179 39.1933 557.392 39.54C557.619 39.8733 558.026 40.04 558.612 40.04C558.786 40.04 558.972 40.0133 559.172 39.96C559.386 39.9067 559.572 39.8467 559.732 39.78L560.032 40.88C559.766 40.9733 559.479 41.0533 559.172 41.12C558.866 41.2 558.572 41.24 558.292 41.24ZM561.973 41V26.72H563.413V30.68L563.373 32.72C563.84 32.2533 564.333 31.86 564.853 31.54C565.373 31.22 565.96 31.06 566.613 31.06C567.64 31.06 568.387 31.38 568.853 32.02C569.333 32.66 569.573 33.6 569.573 34.84V41H568.113V35.02C568.113 34.0867 567.96 33.4067 567.653 32.98C567.36 32.5533 566.873 32.34 566.193 32.34C565.687 32.34 565.227 32.4733 564.813 32.74C564.4 32.9933 563.933 33.38 563.413 33.9V41H561.973ZM579.578 41.24C578.578 41.24 577.838 40.92 577.358 40.28C576.878 39.64 576.638 38.7 576.638 37.46V31.3H578.078V37.28C578.078 38.2133 578.231 38.9 578.538 39.34C578.845 39.7667 579.338 39.98 580.018 39.98C580.525 39.98 580.985 39.8467 581.398 39.58C581.811 39.3 582.258 38.86 582.738 38.26V31.3H584.198V41H582.978L582.858 39.46H582.798C582.345 39.9933 581.865 40.4267 581.358 40.76C580.851 41.08 580.258 41.24 579.578 41.24ZM590.059 41.24C589.366 41.24 588.706 41.1133 588.079 40.86C587.452 40.5933 586.912 40.2733 586.459 39.9L587.199 38.92C587.626 39.2533 588.066 39.5333 588.519 39.76C588.972 39.9867 589.506 40.1 590.119 40.1C590.786 40.1 591.286 39.94 591.619 39.62C591.952 39.3 592.119 38.92 592.119 38.48C592.119 38.1333 592.006 37.8467 591.779 37.62C591.552 37.38 591.266 37.18 590.919 37.02C590.572 36.8467 590.219 36.6933 589.859 36.56C589.406 36.4 588.952 36.2067 588.499 35.98C588.046 35.7533 587.666 35.4667 587.359 35.12C587.066 34.7733 586.919 34.3267 586.919 33.78C586.919 33.02 587.206 32.38 587.779 31.86C588.366 31.3267 589.179 31.06 590.219 31.06C590.806 31.06 591.352 31.1667 591.859 31.38C592.366 31.5933 592.799 31.8467 593.159 32.14L592.459 33.08C592.126 32.84 591.779 32.64 591.419 32.48C591.072 32.3067 590.672 32.22 590.219 32.22C589.579 32.22 589.106 32.3733 588.799 32.68C588.492 32.9733 588.339 33.3133 588.339 33.7C588.339 34.02 588.439 34.2867 588.639 34.5C588.852 34.7 589.126 34.8733 589.459 35.02C589.792 35.1667 590.146 35.3133 590.519 35.46C590.999 35.6333 591.466 35.8333 591.919 36.06C592.386 36.2733 592.772 36.56 593.079 36.92C593.386 37.28 593.539 37.7733 593.539 38.4C593.539 38.9067 593.406 39.38 593.139 39.82C592.872 40.2467 592.479 40.5933 591.959 40.86C591.439 41.1133 590.806 41.24 590.059 41.24ZM596.619 41.24C596.326 41.24 596.066 41.1333 595.839 40.92C595.626 40.7067 595.519 40.4267 595.519 40.08C595.519 39.72 595.626 39.4333 595.839 39.22C596.066 39.0067 596.326 38.9 596.619 38.9C596.926 38.9 597.186 39.0067 597.399 39.22C597.613 39.4333 597.719 39.72 597.719 40.08C597.719 40.4267 597.613 40.7067 597.399 40.92C597.186 41.1333 596.926 41.24 596.619 41.24Z" fill="black"/>
</svg>
