<svg width="30" height="30" viewBox="0 0 30 30" fill="none" xmlns="http://www.w3.org/2000/svg">
<g clip-path="url(#clip0_12_69)">
<path d="M15 30C23.2843 30 30 23.2843 30 15C30 6.71573 23.2843 0 15 0C6.71573 0 0 6.71573 0 15C0 23.2843 6.71573 30 15 30Z" fill="#EBF1FF"/>
<path d="M18.5156 9.25C17.0637 9.25 15.7924 9.87437 15 10.9298C14.2076 9.87437 12.9363 9.25 11.4844 9.25C10.3286 9.2513 9.22053 9.71101 8.40327 10.5283C7.58601 11.3455 7.1263 12.4536 7.125 13.6094C7.125 18.5312 14.4227 22.5152 14.7335 22.6797C14.8154 22.7238 14.907 22.7468 15 22.7468C15.093 22.7468 15.1846 22.7238 15.2665 22.6797C15.5773 22.5152 22.875 18.5312 22.875 13.6094C22.8737 12.4536 22.414 11.3455 21.5967 10.5283C20.7795 9.71101 19.6714 9.2513 18.5156 9.25ZM15 21.5406C13.7161 20.7925 8.25 17.3845 8.25 13.6094C8.25112 12.7519 8.59224 11.9299 9.19856 11.3236C9.80488 10.7172 10.6269 10.3761 11.4844 10.375C12.852 10.375 14.0002 11.1034 14.4797 12.2734C14.5221 12.3766 14.5942 12.4648 14.6868 12.5269C14.7795 12.589 14.8885 12.6222 15 12.6222C15.1115 12.6222 15.2205 12.589 15.3132 12.5269C15.4058 12.4648 15.4779 12.3766 15.5203 12.2734C15.9998 11.1013 17.148 10.375 18.5156 10.375C19.3731 10.3761 20.1951 10.7172 20.8014 11.3236C21.4078 11.9299 21.7489 12.7519 21.75 13.6094C21.75 17.3788 16.2825 20.7918 15 21.5406Z" fill="#F94C10"/>
<path d="M17.5966 14.5018C17.8077 14.4666 18.0137 14.2185 18.1677 14.0928C18.3247 13.9645 18.4896 13.8455 18.6456 13.7161C18.7387 13.6389 18.747 13.5355 18.7955 13.4285C19.0285 12.9142 19.5367 12.4546 20.1158 12.3937C20.163 12.3887 20.3647 13.0982 20.367 13.1734C20.3784 13.5639 20.4034 13.9559 20.4034 14.352C20.4034 14.5417 20.4034 14.7313 20.4034 14.921C20.4034 15.2235 20.2112 15.4634 20.0531 15.7068C19.9282 15.8988 19.7322 16.028 19.6015 16.207C19.4206 16.4544 19.2059 16.7071 18.9737 16.9077C18.5446 17.2782 18.0683 17.5941 17.7019 18.0215C17.0072 18.8319 16.0404 19.3737 15.1705 19.9615C15.0927 20.0141 14.9539 20.0857 14.8647 20.1154C14.659 20.184 14.4603 19.8648 14.3301 19.7104C13.8437 19.1339 13.1397 18.9681 12.5217 18.5844C12.3812 18.4973 12.2715 18.4356 12.1632 18.307C12.0814 18.2098 12.007 18.1065 11.9303 18.0053C11.8429 17.8898 11.6827 17.7703 11.6164 17.6488C11.437 17.3199 11.193 16.9466 10.9077 16.7051C10.5936 16.4394 10.1671 16.1595 9.98623 15.7776C9.83869 15.4662 9.82231 15.0974 9.66829 14.7894C9.49675 14.4463 9.4678 14.1679 9.4678 13.789C9.4678 13.5151 9.43337 13.2174 9.49615 12.9506C9.62737 12.3929 10.1956 12.0118 10.7234 11.8692C11.2236 11.734 11.6802 11.7315 12.2037 11.7315C12.4377 11.7315 12.5561 11.737 12.7546 11.8429C13.0023 11.975 13.1942 12.1297 13.4046 12.3167C13.6036 12.4936 13.7794 12.6942 13.9554 12.8939C14.0801 13.0352 14.3042 13.4447 14.4982 13.4447C14.942 13.4447 15.3853 13.0936 15.776 12.906C16.3068 12.6513 16.7212 12.2037 17.2037 11.8773C17.4432 11.7153 17.6815 11.6586 17.9692 11.6586C18.2905 11.6586 18.645 11.6174 18.9656 11.6667C19.0424 11.6785 19.5196 11.7568 19.4779 11.8611C19.4543 11.9201 19.3312 11.9695 19.2855 11.9947C19.0823 12.1071 18.8796 12.2196 18.678 12.335C18.214 12.6005 17.7276 12.8011 17.2098 12.9344C16.0843 13.2241 14.9668 13.399 13.8177 13.5541C12.8787 13.6808 11.9235 13.6686 10.9866 13.8173C10.8783 13.8345 10.8815 13.9028 10.8894 13.9996C10.9177 14.3447 11.4974 14.41 11.7542 14.439C12.5015 14.5235 13.2804 14.4258 14.0284 14.3925C14.5721 14.3683 15.1144 14.356 15.6586 14.356C16.0763 14.356 16.1952 14.3197 16.4099 14.7246C16.5422 14.9742 16.6692 15.3392 16.6833 15.6278C16.7009 15.9888 16.7334 16.3024 16.4868 16.5877C16.1165 17.0162 15.7332 17.3804 15.2596 17.6975C14.6003 18.1388 13.6913 18.0752 13.0765 17.58C12.859 17.4047 12.7201 17.2962 12.712 16.9968C12.7053 16.7464 12.7795 16.6953 13.0482 16.6322C13.4442 16.5394 13.8759 16.5796 14.2795 16.5796C14.4991 16.5796 14.7247 16.4312 14.9356 16.3609" stroke="#F94C10" stroke-width="3" stroke-linecap="round"/>
</g>
<defs>
<clipPath id="clip0_12_69">
<rect width="30" height="30" fill="white"/>
</clipPath>
</defs>
</svg>
