<svg width="205" height="19" viewBox="0 0 205 19" fill="none" xmlns="http://www.w3.org/2000/svg">
<g clip-path="url(#clip0_5_42)">
<path d="M11.9639 14H3.71973C3.50879 14 3.28027 13.9766 3.03418 13.9297C2.79395 13.877 2.55371 13.7979 2.31348 13.6924C2.0791 13.5869 1.85352 13.4521 1.63672 13.2881C1.41992 13.1182 1.22656 12.916 1.05664 12.6816C0.892578 12.4414 0.760742 12.166 0.661133 11.8555C0.561523 11.5391 0.511719 11.1846 0.511719 10.792V4.60449C0.511719 4.39355 0.535156 4.16797 0.582031 3.92773C0.634766 3.68164 0.713867 3.44141 0.819336 3.20703C0.924805 2.9668 1.0625 2.73828 1.23242 2.52148C1.40234 2.30469 1.60449 2.11426 1.83887 1.9502C2.0791 1.78027 2.35449 1.64551 2.66504 1.5459C2.97559 1.44629 3.32715 1.39648 3.71973 1.39648H11.9639V3.68164H3.71973C3.4209 3.68164 3.19238 3.76074 3.03418 3.91895C2.87598 4.07715 2.79688 4.31152 2.79688 4.62207V10.792C2.79688 11.085 2.87598 11.3135 3.03418 11.4775C3.19824 11.6357 3.42676 11.7148 3.71973 11.7148H11.9639V14ZM24.2422 14.9141C24.2422 15.3066 24.1924 15.6582 24.0928 15.9688C23.9932 16.2852 23.8613 16.5605 23.6973 16.7949C23.5332 17.0352 23.3428 17.2373 23.126 17.4014C22.9092 17.5713 22.6807 17.709 22.4404 17.8145C22.2061 17.9199 21.9688 17.9961 21.7285 18.043C21.4883 18.0957 21.2598 18.1221 21.043 18.1221H16.9209V15.8369H21.043C21.3477 15.8369 21.5762 15.7578 21.7285 15.5996C21.8809 15.4414 21.957 15.2129 21.957 14.9141V4.49902H24.2422V14.9141ZM21.043 14H16.9209C16.5928 14 16.2412 13.9443 15.8662 13.833C15.4971 13.7217 15.1514 13.54 14.8291 13.2881C14.5068 13.0303 14.2402 12.6992 14.0293 12.2949C13.8184 11.8848 13.7129 11.3838 13.7129 10.792V4.49902H15.998V10.792C15.998 11.0908 16.0771 11.3193 16.2354 11.4775C16.3936 11.6357 16.6279 11.7148 16.9385 11.7148H21.043V14ZM36.8984 10.792C36.8984 11.0088 36.8721 11.2373 36.8193 11.4775C36.7725 11.7178 36.6963 11.958 36.5908 12.1982C36.4854 12.4326 36.3477 12.6582 36.1777 12.875C36.0137 13.0918 35.8115 13.2852 35.5713 13.4551C35.3369 13.6191 35.0645 13.751 34.7539 13.8506C34.4434 13.9502 34.0918 14 33.6992 14H29.5771C29.3604 14 29.1318 13.9766 28.8916 13.9297C28.6514 13.877 28.4111 13.7979 28.1709 13.6924C27.9365 13.5869 27.7109 13.4521 27.4941 13.2881C27.2773 13.1182 27.084 12.916 26.9141 12.6816C26.75 12.4414 26.6182 12.166 26.5186 11.8555C26.4189 11.5391 26.3691 11.1846 26.3691 10.792V0.482422H28.6543V10.792C28.6543 11.0732 28.7422 11.2988 28.918 11.4688C29.0938 11.6328 29.3135 11.7148 29.5771 11.7148H33.6992C33.9863 11.7148 34.209 11.6299 34.3672 11.46C34.5312 11.29 34.6133 11.0674 34.6133 10.792V7.69824C34.6133 7.41113 34.5283 7.18848 34.3584 7.03027C34.1885 6.86621 33.9688 6.78418 33.6992 6.78418H29.5771V4.49902H33.6992C33.916 4.49902 34.1445 4.52539 34.3848 4.57812C34.625 4.625 34.8623 4.70117 35.0967 4.80664C35.3369 4.91211 35.5654 5.0498 35.7822 5.21973C35.999 5.38379 36.1895 5.58594 36.3535 5.82617C36.5176 6.06055 36.6494 6.33301 36.749 6.64355C36.8486 6.9541 36.8984 7.30566 36.8984 7.69824V10.792ZM49.0713 7.64551C49.0713 7.96191 49.0156 8.30469 48.9043 8.67383C48.793 9.03711 48.6113 9.37695 48.3594 9.69336C48.1133 10.0039 47.7881 10.2646 47.3838 10.4756C46.9854 10.6865 46.499 10.792 45.9248 10.792H41.8027V8.62109H45.9248C46.2354 8.62109 46.4756 8.52734 46.6455 8.33984C46.8154 8.14648 46.9004 7.90918 46.9004 7.62793C46.9004 7.3291 46.8037 7.09473 46.6104 6.9248C46.4229 6.75488 46.1943 6.66992 45.9248 6.66992H41.8027C41.4922 6.66992 41.252 6.7666 41.082 6.95996C40.9121 7.14746 40.8271 7.38184 40.8271 7.66309V10.8535C40.8271 11.1582 40.9209 11.3955 41.1084 11.5654C41.3018 11.7354 41.5391 11.8203 41.8203 11.8203H45.9248V14H41.8027C41.4863 14 41.1436 13.9443 40.7744 13.833C40.4111 13.7217 40.0713 13.543 39.7549 13.2969C39.4443 13.0449 39.1836 12.7197 38.9727 12.3213C38.7617 11.917 38.6562 11.4277 38.6562 10.8535V7.64551C38.6562 7.3291 38.7119 6.98926 38.8232 6.62598C38.9346 6.25684 39.1133 5.91699 39.3594 5.60645C39.6113 5.29004 39.9365 5.02637 40.335 4.81543C40.7393 4.60449 41.2285 4.49902 41.8027 4.49902H45.9248C46.2412 4.49902 46.5811 4.55469 46.9443 4.66602C47.3135 4.77734 47.6533 4.95898 47.9639 5.21094C48.2803 5.45703 48.5439 5.78223 48.7549 6.18652C48.9658 6.58496 49.0713 7.07129 49.0713 7.64551ZM58.9238 6.78418H53.7822C53.4717 6.78418 53.2373 6.86328 53.0791 7.02148C52.9209 7.17383 52.8418 7.39941 52.8418 7.69824V14H50.5566V7.69824C50.5566 7.30566 50.6064 6.9541 50.7061 6.64355C50.8057 6.33301 50.9375 6.06055 51.1016 5.82617C51.2715 5.58594 51.4648 5.38379 51.6816 5.21973C51.8984 5.0498 52.124 4.91211 52.3584 4.80664C52.5986 4.70117 52.8389 4.625 53.0791 4.57812C53.3252 4.52539 53.5537 4.49902 53.7646 4.49902H58.9238V6.78418ZM73.127 12.8486C73.127 13.0127 73.0977 13.165 73.0391 13.3057C72.9805 13.4463 72.8984 13.5693 72.793 13.6748C72.6934 13.7744 72.5732 13.8535 72.4326 13.9121C72.292 13.9707 72.1396 14 71.9756 14H63.7314C63.5205 14 63.292 13.9766 63.0459 13.9297C62.8057 13.877 62.5654 13.7979 62.3252 13.6924C62.0908 13.5869 61.8652 13.4521 61.6484 13.2881C61.4316 13.1182 61.2383 12.916 61.0684 12.6816C60.9043 12.4414 60.7725 12.166 60.6729 11.8555C60.5732 11.5391 60.5234 11.1846 60.5234 10.792V4.60449C60.5234 4.39355 60.5469 4.16797 60.5938 3.92773C60.6465 3.68164 60.7256 3.44141 60.8311 3.20703C60.9365 2.9668 61.0742 2.73828 61.2441 2.52148C61.4141 2.30469 61.6162 2.11426 61.8506 1.9502C62.0908 1.78027 62.3662 1.64551 62.6768 1.5459C62.9873 1.44629 63.3389 1.39648 63.7314 1.39648H73.0215V3.68164H63.7314C63.4326 3.68164 63.2041 3.76074 63.0459 3.91895C62.8877 4.07715 62.8086 4.31152 62.8086 4.62207V10.792C62.8086 11.085 62.8877 11.3135 63.0459 11.4775C63.21 11.6357 63.4385 11.7148 63.7314 11.7148H70.8418V8.84961H64.7598V6.54688H71.9756C72.1396 6.54688 72.292 6.5791 72.4326 6.64355C72.5732 6.70215 72.6934 6.78418 72.793 6.88965C72.8984 6.99512 72.9805 7.11816 73.0391 7.25879C73.0977 7.39355 73.127 7.54004 73.127 7.69824V12.8486ZM85.6426 12.8486C85.6426 13.0127 85.6133 13.165 85.5547 13.3057C85.4961 13.4463 85.4141 13.5693 85.3086 13.6748C85.209 13.7744 85.0889 13.8535 84.9482 13.9121C84.8135 13.9707 84.667 14 84.5088 14H79.3408C79.0596 14 78.7578 13.9678 78.4355 13.9033C78.1191 13.8389 77.8057 13.7363 77.4951 13.5957C77.1846 13.4492 76.8828 13.2676 76.5898 13.0508C76.3027 12.8281 76.0508 12.5615 75.834 12.251C75.6172 11.9346 75.4414 11.5713 75.3066 11.1611C75.1777 10.751 75.1133 10.2881 75.1133 9.77246V4.49902H77.3984V9.77246C77.3984 10.0713 77.4482 10.3408 77.5479 10.5811C77.6533 10.8154 77.7939 11.0176 77.9697 11.1875C78.1455 11.3574 78.3506 11.4893 78.585 11.583C78.8252 11.6709 79.083 11.7148 79.3584 11.7148H83.3574V4.49902H85.6426V12.8486ZM97.5957 10.8535C97.5957 11.1699 97.54 11.5127 97.4287 11.8818C97.3174 12.2451 97.1357 12.585 96.8838 12.9014C96.6377 13.2119 96.3125 13.4727 95.9082 13.6836C95.5098 13.8945 95.0234 14 94.4492 14H90.3271C90.0107 14 89.668 13.9443 89.2988 13.833C88.9355 13.7217 88.5957 13.543 88.2793 13.2969C87.9688 13.0449 87.708 12.7197 87.4971 12.3213C87.2861 11.917 87.1807 11.4277 87.1807 10.8535C87.1807 10.5371 87.2363 10.1943 87.3477 9.8252C87.459 9.45605 87.6377 9.11621 87.8838 8.80566C88.1357 8.48926 88.4609 8.22559 88.8594 8.01465C89.2637 7.80371 89.7529 7.69824 90.3271 7.69824H94.4492V9.87793H90.3271C90.0166 9.87793 89.7764 9.97461 89.6064 10.168C89.4365 10.3555 89.3516 10.5898 89.3516 10.8711C89.3516 11.1699 89.4482 11.4043 89.6416 11.5742C89.8408 11.7383 90.0752 11.8203 90.3447 11.8203H94.4492C94.7598 11.8203 95 11.7266 95.1699 11.5391C95.3398 11.3516 95.4248 11.1172 95.4248 10.8359V7.64551C95.4248 7.34668 95.3311 7.10938 95.1436 6.93359C94.9619 6.75781 94.7305 6.66992 94.4492 6.66992H89.4307V4.49902H94.4492C94.7656 4.49902 95.1055 4.55469 95.4688 4.66602C95.8379 4.77734 96.1777 4.95898 96.4883 5.21094C96.8047 5.45703 97.0684 5.78223 97.2793 6.18652C97.4902 6.58496 97.5957 7.07129 97.5957 7.64551V10.8535ZM107.861 6.78418H102.72C102.409 6.78418 102.175 6.86328 102.017 7.02148C101.858 7.17383 101.779 7.39941 101.779 7.69824V14H99.4941V7.69824C99.4941 7.30566 99.5439 6.9541 99.6436 6.64355C99.7432 6.33301 99.875 6.06055 100.039 5.82617C100.209 5.58594 100.402 5.38379 100.619 5.21973C100.836 5.0498 101.062 4.91211 101.296 4.80664C101.536 4.70117 101.776 4.625 102.017 4.57812C102.263 4.52539 102.491 4.49902 102.702 4.49902H107.861V6.78418ZM119.762 10.792C119.762 11.1846 119.712 11.5391 119.612 11.8555C119.513 12.166 119.381 12.4414 119.217 12.6816C119.053 12.916 118.862 13.1182 118.646 13.2881C118.429 13.4521 118.2 13.5869 117.96 13.6924C117.726 13.7979 117.485 13.877 117.239 13.9297C116.999 13.9766 116.771 14 116.554 14H112.432C112.039 14 111.688 13.9502 111.377 13.8506C111.066 13.751 110.791 13.6191 110.551 13.4551C110.316 13.2852 110.114 13.0918 109.944 12.875C109.78 12.6582 109.646 12.4326 109.54 12.1982C109.435 11.958 109.355 11.7178 109.303 11.4775C109.256 11.2314 109.232 11.0029 109.232 10.792V7.69824C109.232 7.1123 109.338 6.61719 109.549 6.21289C109.766 5.80273 110.032 5.47168 110.349 5.21973C110.671 4.96191 111.02 4.77734 111.395 4.66602C111.77 4.55469 112.115 4.49902 112.432 4.49902H116.554V6.78418H112.449C112.145 6.78418 111.913 6.86328 111.755 7.02148C111.597 7.17383 111.518 7.39941 111.518 7.69824V10.7744C111.518 11.085 111.594 11.3193 111.746 11.4775C111.904 11.6357 112.133 11.7148 112.432 11.7148H116.554C116.864 11.7148 117.096 11.6357 117.248 11.4775C117.4 11.3193 117.477 11.0908 117.477 10.792V0.482422H119.762V10.792ZM141.26 14H138.017L132.875 8.84961H131.267V6.54688H132.875L138.017 1.39648H141.26L134.782 7.69824L141.26 14ZM130.353 14H128.067V1.39648H130.353V14ZM152.325 7.64551C152.325 7.96191 152.27 8.30469 152.158 8.67383C152.047 9.03711 151.865 9.37695 151.613 9.69336C151.367 10.0039 151.042 10.2646 150.638 10.4756C150.239 10.6865 149.753 10.792 149.179 10.792H145.057V8.62109H149.179C149.489 8.62109 149.729 8.52734 149.899 8.33984C150.069 8.14648 150.154 7.90918 150.154 7.62793C150.154 7.3291 150.058 7.09473 149.864 6.9248C149.677 6.75488 149.448 6.66992 149.179 6.66992H145.057C144.746 6.66992 144.506 6.7666 144.336 6.95996C144.166 7.14746 144.081 7.38184 144.081 7.66309V10.8535C144.081 11.1582 144.175 11.3955 144.362 11.5654C144.556 11.7354 144.793 11.8203 145.074 11.8203H149.179V14H145.057C144.74 14 144.397 13.9443 144.028 13.833C143.665 13.7217 143.325 13.543 143.009 13.2969C142.698 13.0449 142.438 12.7197 142.227 12.3213C142.016 11.917 141.91 11.4277 141.91 10.8535V7.64551C141.91 7.3291 141.966 6.98926 142.077 6.62598C142.188 6.25684 142.367 5.91699 142.613 5.60645C142.865 5.29004 143.19 5.02637 143.589 4.81543C143.993 4.60449 144.482 4.49902 145.057 4.49902H149.179C149.495 4.49902 149.835 4.55469 150.198 4.66602C150.567 4.77734 150.907 4.95898 151.218 5.21094C151.534 5.45703 151.798 5.78223 152.009 6.18652C152.22 6.58496 152.325 7.07129 152.325 7.64551ZM164.34 14.9141C164.34 15.3066 164.29 15.6582 164.19 15.9688C164.091 16.2852 163.959 16.5605 163.795 16.7949C163.631 17.0352 163.44 17.2373 163.224 17.4014C163.007 17.5713 162.778 17.709 162.538 17.8145C162.304 17.9199 162.066 17.9961 161.826 18.043C161.586 18.0957 161.357 18.1221 161.141 18.1221H157.019V15.8369H161.141C161.445 15.8369 161.674 15.7578 161.826 15.5996C161.979 15.4414 162.055 15.2129 162.055 14.9141V4.49902H164.34V14.9141ZM161.141 14H157.019C156.69 14 156.339 13.9443 155.964 13.833C155.595 13.7217 155.249 13.54 154.927 13.2881C154.604 13.0303 154.338 12.6992 154.127 12.2949C153.916 11.8848 153.811 11.3838 153.811 10.792V4.49902H156.096V10.792C156.096 11.0908 156.175 11.3193 156.333 11.4775C156.491 11.6357 156.726 11.7148 157.036 11.7148H161.141V14ZM169.077 6.54688H177.102V1.39648H179.387V14H177.102V8.84961H169.077V14H166.792V1.39648H169.077V6.54688ZM192.148 12.8486C192.148 13.0127 192.119 13.165 192.061 13.3057C192.002 13.4463 191.92 13.5693 191.814 13.6748C191.715 13.7744 191.595 13.8535 191.454 13.9121C191.319 13.9707 191.173 14 191.015 14H185.847C185.565 14 185.264 13.9678 184.941 13.9033C184.625 13.8389 184.312 13.7363 184.001 13.5957C183.69 13.4492 183.389 13.2676 183.096 13.0508C182.809 12.8281 182.557 12.5615 182.34 12.251C182.123 11.9346 181.947 11.5713 181.812 11.1611C181.684 10.751 181.619 10.2881 181.619 9.77246V4.49902H183.904V9.77246C183.904 10.0713 183.954 10.3408 184.054 10.5811C184.159 10.8154 184.3 11.0176 184.476 11.1875C184.651 11.3574 184.856 11.4893 185.091 11.583C185.331 11.6709 185.589 11.7148 185.864 11.7148H189.863V4.49902H192.148V12.8486ZM204.77 10.792C204.77 11.0088 204.743 11.2373 204.69 11.4775C204.644 11.7178 204.567 11.958 204.462 12.1982C204.356 12.4326 204.219 12.6582 204.049 12.875C203.885 13.0918 203.683 13.2852 203.442 13.4551C203.208 13.6191 202.936 13.751 202.625 13.8506C202.314 13.9502 201.963 14 201.57 14H197.448C197.231 14 197.003 13.9766 196.763 13.9297C196.522 13.877 196.282 13.7979 196.042 13.6924C195.808 13.5869 195.582 13.4521 195.365 13.2881C195.148 13.1182 194.955 12.916 194.785 12.6816C194.621 12.4414 194.489 12.166 194.39 11.8555C194.29 11.5391 194.24 11.1846 194.24 10.792V0.482422H196.525V10.792C196.525 11.0732 196.613 11.2988 196.789 11.4688C196.965 11.6328 197.185 11.7148 197.448 11.7148H201.57C201.857 11.7148 202.08 11.6299 202.238 11.46C202.402 11.29 202.484 11.0674 202.484 10.792V7.69824C202.484 7.41113 202.399 7.18848 202.229 7.03027C202.06 6.86621 201.84 6.78418 201.57 6.78418H197.448V4.49902H201.57C201.787 4.49902 202.016 4.52539 202.256 4.57812C202.496 4.625 202.733 4.70117 202.968 4.80664C203.208 4.91211 203.437 5.0498 203.653 5.21973C203.87 5.38379 204.061 5.58594 204.225 5.82617C204.389 6.06055 204.521 6.33301 204.62 6.64355C204.72 6.9541 204.77 7.30566 204.77 7.69824V10.792Z" fill="#337CCF"/>
</g>
<defs>
<clipPath id="clip0_5_42">
<rect width="205" height="19" fill="white"/>
</clipPath>
</defs>
</svg>
