<svg width="33" height="33" viewBox="0 0 33 33" fill="none" xmlns="http://www.w3.org/2000/svg">
<path d="M22.5804 6C20.2757 6 18.2578 6.97148 17 8.61358C15.7422 6.97148 13.7243 6 11.4196 6C9.58507 6.00203 7.82624 6.7173 6.529 7.98889C5.23176 9.26048 4.50207 10.9845 4.5 12.7828C4.5 20.4409 16.0837 26.6396 16.577 26.8956C16.707 26.9641 16.8524 27 17 27C17.1476 27 17.293 26.9641 17.423 26.8956C17.9163 26.6396 29.5 20.4409 29.5 12.7828C29.4979 10.9845 28.7682 9.26048 27.471 7.98889C26.1738 6.7173 24.4149 6.00203 22.5804 6ZM17 25.1233C14.9621 23.9592 6.28571 18.6566 6.28571 12.7828C6.28749 11.4487 6.82895 10.1697 7.79136 9.2263C8.75378 8.28291 10.0586 7.75215 11.4196 7.75041C13.5904 7.75041 15.4129 8.88381 16.1741 10.7042C16.2414 10.8648 16.3558 11.0021 16.5029 11.0987C16.6499 11.1953 16.823 11.2469 17 11.2469C17.177 11.2469 17.3501 11.1953 17.4971 11.0987C17.6442 11.0021 17.7586 10.8648 17.8259 10.7042C18.5871 8.88052 20.4096 7.75041 22.5804 7.75041C23.9414 7.75215 25.2462 8.28291 26.2086 9.2263C27.1711 10.1697 27.7125 11.4487 27.7143 12.7828C27.7143 18.6478 19.0357 23.9581 17 25.1233Z" fill="#535766"/>
</svg>
