<svg width="183" height="17" viewBox="0 0 183 17" fill="none" xmlns="http://www.w3.org/2000/svg">
<g clip-path="url(#clip0_1_2)">
<path d="M11.0234 13H3.69531C3.50781 13 3.30469 12.9792 3.08594 12.9375C2.8724 12.8906 2.65885 12.8203 2.44531 12.7266C2.23698 12.6328 2.03646 12.513 1.84375 12.3672C1.65104 12.2161 1.47917 12.0365 1.32812 11.8281C1.18229 11.6146 1.0651 11.3698 0.976562 11.0938C0.888021 10.8125 0.84375 10.4974 0.84375 10.1484V4.64844C0.84375 4.46094 0.864583 4.26042 0.90625 4.04688C0.953125 3.82812 1.02344 3.61458 1.11719 3.40625C1.21094 3.19271 1.33333 2.98958 1.48438 2.79688C1.63542 2.60417 1.8151 2.4349 2.02344 2.28906C2.23698 2.13802 2.48177 2.01823 2.75781 1.92969C3.03385 1.84115 3.34635 1.79688 3.69531 1.79688H11.0234V3.82812H3.69531C3.42969 3.82812 3.22656 3.89844 3.08594 4.03906C2.94531 4.17969 2.875 4.38802 2.875 4.66406V10.1484C2.875 10.4089 2.94531 10.612 3.08594 10.7578C3.23177 10.8984 3.4349 10.9688 3.69531 10.9688H11.0234V13ZM21.9375 13.8125C21.9375 14.1615 21.8932 14.474 21.8047 14.75C21.7161 15.0312 21.599 15.276 21.4531 15.4844C21.3073 15.6979 21.138 15.8776 20.9453 16.0234C20.7526 16.1745 20.5495 16.2969 20.3359 16.3906C20.1276 16.4844 19.9167 16.5521 19.7031 16.5938C19.4896 16.6406 19.2865 16.6641 19.0938 16.6641H15.4297V14.6328H19.0938C19.3646 14.6328 19.5677 14.5625 19.7031 14.4219C19.8385 14.2812 19.9062 14.0781 19.9062 13.8125V4.55469H21.9375V13.8125ZM19.0938 13H15.4297C15.138 13 14.8255 12.9505 14.4922 12.8516C14.1641 12.7526 13.8568 12.5911 13.5703 12.3672C13.2839 12.138 13.0469 11.8438 12.8594 11.4844C12.6719 11.1198 12.5781 10.6745 12.5781 10.1484V4.55469H14.6094V10.1484C14.6094 10.4141 14.6797 10.6172 14.8203 10.7578C14.9609 10.8984 15.1693 10.9688 15.4453 10.9688H19.0938V13ZM33.1875 10.1484C33.1875 10.3411 33.1641 10.5443 33.1172 10.7578C33.0755 10.9714 33.0078 11.1849 32.9141 11.3984C32.8203 11.6068 32.6979 11.8073 32.5469 12C32.401 12.1927 32.2214 12.3646 32.0078 12.5156C31.7995 12.6615 31.5573 12.7786 31.2812 12.8672C31.0052 12.9557 30.6927 13 30.3438 13H26.6797C26.487 13 26.2839 12.9792 26.0703 12.9375C25.8568 12.8906 25.6432 12.8203 25.4297 12.7266C25.2214 12.6328 25.0208 12.513 24.8281 12.3672C24.6354 12.2161 24.4635 12.0365 24.3125 11.8281C24.1667 11.6146 24.0495 11.3698 23.9609 11.0938C23.8724 10.8125 23.8281 10.4974 23.8281 10.1484V0.984375H25.8594V10.1484C25.8594 10.3984 25.9375 10.599 26.0938 10.75C26.25 10.8958 26.4453 10.9688 26.6797 10.9688H30.3438C30.599 10.9688 30.7969 10.8932 30.9375 10.7422C31.0833 10.5911 31.1562 10.3932 31.1562 10.1484V7.39844C31.1562 7.14323 31.0807 6.94531 30.9297 6.80469C30.7786 6.65885 30.5833 6.58594 30.3438 6.58594H26.6797V4.55469H30.3438C30.5365 4.55469 30.7396 4.57812 30.9531 4.625C31.1667 4.66667 31.3776 4.73438 31.5859 4.82812C31.7995 4.92188 32.0026 5.04427 32.1953 5.19531C32.388 5.34115 32.5573 5.52083 32.7031 5.73438C32.849 5.94271 32.9661 6.1849 33.0547 6.46094C33.1432 6.73698 33.1875 7.04948 33.1875 7.39844V10.1484ZM44.0078 7.35156C44.0078 7.63281 43.9583 7.9375 43.8594 8.26562C43.7604 8.58854 43.599 8.89062 43.375 9.17188C43.1562 9.44792 42.8672 9.67969 42.5078 9.86719C42.1536 10.0547 41.7214 10.1484 41.2109 10.1484H37.5469V8.21875H41.2109C41.487 8.21875 41.7005 8.13542 41.8516 7.96875C42.0026 7.79688 42.0781 7.58594 42.0781 7.33594C42.0781 7.07031 41.9922 6.86198 41.8203 6.71094C41.6536 6.5599 41.4505 6.48438 41.2109 6.48438H37.5469C37.2708 6.48438 37.0573 6.57031 36.9062 6.74219C36.7552 6.90885 36.6797 7.11719 36.6797 7.36719V10.2031C36.6797 10.474 36.763 10.6849 36.9297 10.8359C37.1016 10.987 37.3125 11.0625 37.5625 11.0625H41.2109V13H37.5469C37.2656 13 36.9609 12.9505 36.6328 12.8516C36.3099 12.7526 36.0078 12.5938 35.7266 12.375C35.4505 12.151 35.2188 11.862 35.0312 11.5078C34.8438 11.1484 34.75 10.7135 34.75 10.2031V7.35156C34.75 7.07031 34.7995 6.76823 34.8984 6.44531C34.9974 6.11719 35.1562 5.8151 35.375 5.53906C35.599 5.25781 35.888 5.02344 36.2422 4.83594C36.6016 4.64844 37.0365 4.55469 37.5469 4.55469H41.2109C41.4922 4.55469 41.7943 4.60417 42.1172 4.70312C42.4453 4.80208 42.7474 4.96354 43.0234 5.1875C43.3047 5.40625 43.5391 5.69531 43.7266 6.05469C43.9141 6.40885 44.0078 6.84115 44.0078 7.35156ZM52.7656 6.58594H48.1953C47.9193 6.58594 47.7109 6.65625 47.5703 6.79688C47.4297 6.93229 47.3594 7.13281 47.3594 7.39844V13H45.3281V7.39844C45.3281 7.04948 45.3724 6.73698 45.4609 6.46094C45.5495 6.1849 45.6667 5.94271 45.8125 5.73438C45.9635 5.52083 46.1354 5.34115 46.3281 5.19531C46.5208 5.04427 46.7214 4.92188 46.9297 4.82812C47.1432 4.73438 47.3568 4.66667 47.5703 4.625C47.7891 4.57812 47.9922 4.55469 48.1797 4.55469H52.7656V6.58594ZM65.3906 11.9766C65.3906 12.1224 65.3646 12.2578 65.3125 12.3828C65.2604 12.5078 65.1875 12.6172 65.0938 12.7109C65.0052 12.7995 64.8984 12.8698 64.7734 12.9219C64.6484 12.974 64.513 13 64.3672 13H57.0391C56.8516 13 56.6484 12.9792 56.4297 12.9375C56.2161 12.8906 56.0026 12.8203 55.7891 12.7266C55.5807 12.6328 55.3802 12.513 55.1875 12.3672C54.9948 12.2161 54.8229 12.0365 54.6719 11.8281C54.526 11.6146 54.4089 11.3698 54.3203 11.0938C54.2318 10.8125 54.1875 10.4974 54.1875 10.1484V4.64844C54.1875 4.46094 54.2083 4.26042 54.25 4.04688C54.2969 3.82812 54.3672 3.61458 54.4609 3.40625C54.5547 3.19271 54.6771 2.98958 54.8281 2.79688C54.9792 2.60417 55.1589 2.4349 55.3672 2.28906C55.5807 2.13802 55.8255 2.01823 56.1016 1.92969C56.3776 1.84115 56.6901 1.79688 57.0391 1.79688H65.2969V3.82812H57.0391C56.7734 3.82812 56.5703 3.89844 56.4297 4.03906C56.2891 4.17969 56.2188 4.38802 56.2188 4.66406V10.1484C56.2188 10.4089 56.2891 10.612 56.4297 10.7578C56.5755 10.8984 56.7786 10.9688 57.0391 10.9688H63.3594V8.42188H57.9531V6.375H64.3672C64.513 6.375 64.6484 6.40365 64.7734 6.46094C64.8984 6.51302 65.0052 6.58594 65.0938 6.67969C65.1875 6.77344 65.2604 6.88281 65.3125 7.00781C65.3646 7.1276 65.3906 7.25781 65.3906 7.39844V11.9766ZM76.5156 11.9766C76.5156 12.1224 76.4896 12.2578 76.4375 12.3828C76.3854 12.5078 76.3125 12.6172 76.2188 12.7109C76.1302 12.7995 76.0234 12.8698 75.8984 12.9219C75.7786 12.974 75.6484 13 75.5078 13H70.9141C70.6641 13 70.3958 12.9714 70.1094 12.9141C69.8281 12.8568 69.5495 12.7656 69.2734 12.6406C68.9974 12.5104 68.7292 12.349 68.4688 12.1562C68.2135 11.9583 67.9896 11.7214 67.7969 11.4453C67.6042 11.1641 67.4479 10.8411 67.3281 10.4766C67.2135 10.112 67.1562 9.70052 67.1562 9.24219V4.55469H69.1875V9.24219C69.1875 9.50781 69.2318 9.7474 69.3203 9.96094C69.4141 10.1693 69.5391 10.349 69.6953 10.5C69.8516 10.651 70.0339 10.7682 70.2422 10.8516C70.4557 10.9297 70.6849 10.9688 70.9297 10.9688H74.4844V4.55469H76.5156V11.9766ZM87.1406 10.2031C87.1406 10.4844 87.0911 10.7891 86.9922 11.1172C86.8932 11.4401 86.7318 11.7422 86.5078 12.0234C86.2891 12.2995 86 12.5312 85.6406 12.7188C85.2865 12.9062 84.8542 13 84.3438 13H80.6797C80.3984 13 80.0938 12.9505 79.7656 12.8516C79.4427 12.7526 79.1406 12.5938 78.8594 12.375C78.5833 12.151 78.3516 11.862 78.1641 11.5078C77.9766 11.1484 77.8828 10.7135 77.8828 10.2031C77.8828 9.92188 77.9323 9.61719 78.0312 9.28906C78.1302 8.96094 78.2891 8.65885 78.5078 8.38281C78.7318 8.10156 79.0208 7.86719 79.375 7.67969C79.7344 7.49219 80.1693 7.39844 80.6797 7.39844H84.3438V9.33594H80.6797C80.4036 9.33594 80.1901 9.42188 80.0391 9.59375C79.888 9.76042 79.8125 9.96875 79.8125 10.2188C79.8125 10.4844 79.8984 10.6927 80.0703 10.8438C80.2474 10.9896 80.4557 11.0625 80.6953 11.0625H84.3438C84.6198 11.0625 84.8333 10.9792 84.9844 10.8125C85.1354 10.6458 85.2109 10.4375 85.2109 10.1875V7.35156C85.2109 7.08594 85.1276 6.875 84.9609 6.71875C84.7995 6.5625 84.5938 6.48438 84.3438 6.48438H79.8828V4.55469H84.3438C84.625 4.55469 84.9271 4.60417 85.25 4.70312C85.5781 4.80208 85.8802 4.96354 86.1562 5.1875C86.4375 5.40625 86.6719 5.69531 86.8594 6.05469C87.0469 6.40885 87.1406 6.84115 87.1406 7.35156V10.2031ZM96.2656 6.58594H91.6953C91.4193 6.58594 91.2109 6.65625 91.0703 6.79688C90.9297 6.93229 90.8594 7.13281 90.8594 7.39844V13H88.8281V7.39844C88.8281 7.04948 88.8724 6.73698 88.9609 6.46094C89.0495 6.1849 89.1667 5.94271 89.3125 5.73438C89.4635 5.52083 89.6354 5.34115 89.8281 5.19531C90.0208 5.04427 90.2214 4.92188 90.4297 4.82812C90.6432 4.73438 90.8568 4.66667 91.0703 4.625C91.2891 4.57812 91.4922 4.55469 91.6797 4.55469H96.2656V6.58594ZM106.844 10.1484C106.844 10.4974 106.799 10.8125 106.711 11.0938C106.622 11.3698 106.505 11.6146 106.359 11.8281C106.214 12.0365 106.044 12.2161 105.852 12.3672C105.659 12.513 105.456 12.6328 105.242 12.7266C105.034 12.8203 104.82 12.8906 104.602 12.9375C104.388 12.9792 104.185 13 103.992 13H100.328C99.9792 13 99.6667 12.9557 99.3906 12.8672C99.1146 12.7786 98.8698 12.6615 98.6562 12.5156C98.4479 12.3646 98.2682 12.1927 98.1172 12C97.9714 11.8073 97.8516 11.6068 97.7578 11.3984C97.6641 11.1849 97.5938 10.9714 97.5469 10.7578C97.5052 10.5391 97.4844 10.3359 97.4844 10.1484V7.39844C97.4844 6.8776 97.5781 6.4375 97.7656 6.07812C97.9583 5.71354 98.1953 5.41927 98.4766 5.19531C98.763 4.96615 99.0729 4.80208 99.4062 4.70312C99.7396 4.60417 100.047 4.55469 100.328 4.55469H103.992V6.58594H100.344C100.073 6.58594 99.8672 6.65625 99.7266 6.79688C99.5859 6.93229 99.5156 7.13281 99.5156 7.39844V10.1328C99.5156 10.4089 99.5833 10.6172 99.7188 10.7578C99.8594 10.8984 100.062 10.9688 100.328 10.9688H103.992C104.268 10.9688 104.474 10.8984 104.609 10.7578C104.745 10.6172 104.812 10.4141 104.812 10.1484V0.984375H106.844V10.1484ZM125.953 13H123.07L118.5 8.42188H117.07V6.375H118.5L123.07 1.79688H125.953L120.195 7.39844L125.953 13ZM116.258 13H114.227V1.79688H116.258V13ZM135.789 7.35156C135.789 7.63281 135.74 7.9375 135.641 8.26562C135.542 8.58854 135.38 8.89062 135.156 9.17188C134.938 9.44792 134.648 9.67969 134.289 9.86719C133.935 10.0547 133.503 10.1484 132.992 10.1484H129.328V8.21875H132.992C133.268 8.21875 133.482 8.13542 133.633 7.96875C133.784 7.79688 133.859 7.58594 133.859 7.33594C133.859 7.07031 133.773 6.86198 133.602 6.71094C133.435 6.5599 133.232 6.48438 132.992 6.48438H129.328C129.052 6.48438 128.839 6.57031 128.688 6.74219C128.536 6.90885 128.461 7.11719 128.461 7.36719V10.2031C128.461 10.474 128.544 10.6849 128.711 10.8359C128.883 10.987 129.094 11.0625 129.344 11.0625H132.992V13H129.328C129.047 13 128.742 12.9505 128.414 12.8516C128.091 12.7526 127.789 12.5938 127.508 12.375C127.232 12.151 127 11.862 126.812 11.5078C126.625 11.1484 126.531 10.7135 126.531 10.2031V7.35156C126.531 7.07031 126.581 6.76823 126.68 6.44531C126.779 6.11719 126.938 5.8151 127.156 5.53906C127.38 5.25781 127.669 5.02344 128.023 4.83594C128.383 4.64844 128.818 4.55469 129.328 4.55469H132.992C133.273 4.55469 133.576 4.60417 133.898 4.70312C134.227 4.80208 134.529 4.96354 134.805 5.1875C135.086 5.40625 135.32 5.69531 135.508 6.05469C135.695 6.40885 135.789 6.84115 135.789 7.35156ZM146.469 13.8125C146.469 14.1615 146.424 14.474 146.336 14.75C146.247 15.0312 146.13 15.276 145.984 15.4844C145.839 15.6979 145.669 15.8776 145.477 16.0234C145.284 16.1745 145.081 16.2969 144.867 16.3906C144.659 16.4844 144.448 16.5521 144.234 16.5938C144.021 16.6406 143.818 16.6641 143.625 16.6641H139.961V14.6328H143.625C143.896 14.6328 144.099 14.5625 144.234 14.4219C144.37 14.2812 144.438 14.0781 144.438 13.8125V4.55469H146.469V13.8125ZM143.625 13H139.961C139.669 13 139.357 12.9505 139.023 12.8516C138.695 12.7526 138.388 12.5911 138.102 12.3672C137.815 12.138 137.578 11.8438 137.391 11.4844C137.203 11.1198 137.109 10.6745 137.109 10.1484V4.55469H139.141V10.1484C139.141 10.4141 139.211 10.6172 139.352 10.7578C139.492 10.8984 139.701 10.9688 139.977 10.9688H143.625V13ZM150.68 6.375H157.812V1.79688H159.844V13H157.812V8.42188H150.68V13H148.648V1.79688H150.68V6.375ZM171.188 11.9766C171.188 12.1224 171.161 12.2578 171.109 12.3828C171.057 12.5078 170.984 12.6172 170.891 12.7109C170.802 12.7995 170.695 12.8698 170.57 12.9219C170.451 12.974 170.32 13 170.18 13H165.586C165.336 13 165.068 12.9714 164.781 12.9141C164.5 12.8568 164.221 12.7656 163.945 12.6406C163.669 12.5104 163.401 12.349 163.141 12.1562C162.885 11.9583 162.661 11.7214 162.469 11.4453C162.276 11.1641 162.12 10.8411 162 10.4766C161.885 10.112 161.828 9.70052 161.828 9.24219V4.55469H163.859V9.24219C163.859 9.50781 163.904 9.7474 163.992 9.96094C164.086 10.1693 164.211 10.349 164.367 10.5C164.523 10.651 164.706 10.7682 164.914 10.8516C165.128 10.9297 165.357 10.9688 165.602 10.9688H169.156V4.55469H171.188V11.9766ZM182.406 10.1484C182.406 10.3411 182.383 10.5443 182.336 10.7578C182.294 10.9714 182.227 11.1849 182.133 11.3984C182.039 11.6068 181.917 11.8073 181.766 12C181.62 12.1927 181.44 12.3646 181.227 12.5156C181.018 12.6615 180.776 12.7786 180.5 12.8672C180.224 12.9557 179.911 13 179.562 13H175.898C175.706 13 175.503 12.9792 175.289 12.9375C175.076 12.8906 174.862 12.8203 174.648 12.7266C174.44 12.6328 174.24 12.513 174.047 12.3672C173.854 12.2161 173.682 12.0365 173.531 11.8281C173.385 11.6146 173.268 11.3698 173.18 11.0938C173.091 10.8125 173.047 10.4974 173.047 10.1484V0.984375H175.078V10.1484C175.078 10.3984 175.156 10.599 175.312 10.75C175.469 10.8958 175.664 10.9688 175.898 10.9688H179.562C179.818 10.9688 180.016 10.8932 180.156 10.7422C180.302 10.5911 180.375 10.3932 180.375 10.1484V7.39844C180.375 7.14323 180.299 6.94531 180.148 6.80469C179.997 6.65885 179.802 6.58594 179.562 6.58594H175.898V4.55469H179.562C179.755 4.55469 179.958 4.57812 180.172 4.625C180.385 4.66667 180.596 4.73438 180.805 4.82812C181.018 4.92188 181.221 5.04427 181.414 5.19531C181.607 5.34115 181.776 5.52083 181.922 5.73438C182.068 5.94271 182.185 6.1849 182.273 6.46094C182.362 6.73698 182.406 7.04948 182.406 7.39844V10.1484Z" fill="white"/>
</g>
<defs>
<clipPath id="clip0_1_2">
<rect width="183" height="17" fill="white"/>
</clipPath>
</defs>
</svg>
