<svg width="32" height="32" viewBox="0 0 32 32" fill="none" xmlns="http://www.w3.org/2000/svg">
<path d="M18.672 13.6592C18.5452 13.6583 18.4233 13.7077 18.3328 13.7964C18.2422 13.8851 18.1905 14.006 18.1888 14.1328V17.672C18.1905 17.799 18.2425 17.9202 18.3333 18.009C18.4242 18.0977 18.5466 18.1469 18.6736 18.1456H29.3344C29.4614 18.1469 29.5838 18.0977 29.6747 18.009C29.7655 17.9202 29.8175 17.799 29.8192 17.672V14.1328C29.8175 14.0058 29.7655 13.8846 29.6747 13.7958C29.5838 13.707 29.4614 13.6579 29.3344 13.6592H18.672ZM25.2096 2.40159C26.6848 2.47199 27.7456 2.76319 28.4176 3.38079C29.0816 3.99199 29.4224 4.87679 29.4896 6.04799V9.40319C29.4862 9.68893 29.3696 9.96164 29.1653 10.1614C28.961 10.3612 28.6857 10.4718 28.4 10.4688C28.2584 10.4705 28.1178 10.4443 27.9863 10.3916C27.8548 10.339 27.735 10.261 27.6337 10.162C27.5324 10.0631 27.4515 9.94512 27.3958 9.81492C27.34 9.68472 27.3105 9.54481 27.3088 9.40319L27.3104 6.10879C27.2752 5.50079 27.1296 5.12319 26.9216 4.93119C26.72 4.74559 26.1056 4.57919 25.1568 4.53119H4.2352C3.376 4.56319 2.8176 4.72639 2.5472 4.95839C2.3392 5.13599 2.1824 5.62559 2.1808 6.47199L2.176 25.304C2.256 26.1264 2.4368 26.6752 2.6688 26.9488C2.8448 27.1568 3.3904 27.3648 4.1936 27.4672H25.1792C26.1616 27.4864 26.7408 27.3392 26.936 27.1424C27.152 26.9232 27.3088 26.3472 27.3088 25.4048V22.1328C27.3088 21.5456 27.7968 21.0672 28.4 21.0672C29.0016 21.0672 29.4896 21.5456 29.4896 22.1328V25.4048C29.4896 26.8448 29.1952 27.9216 28.5056 28.6208C27.7952 29.3408 26.6656 29.6288 25.1568 29.5968L4.064 29.592C2.6288 29.4256 1.6 29.032 0.9872 28.3072C0.432 27.6512 0.1232 26.7152 0 25.4064V6.47039C0.0032 5.06879 0.3392 4.01439 1.1104 3.35519C1.8176 2.74719 2.8384 2.45119 4.1936 2.39999H25.2096V2.40159ZM29.3344 11.528C30.8064 11.528 32 12.6944 32 14.1328V17.672C32 19.1104 30.8064 20.2768 29.3344 20.2768H18.6736C17.2016 20.2768 16.008 19.1088 16.008 17.672V14.1328C16.008 12.6944 17.2016 11.528 18.6736 11.528H29.3344ZM21.3392 14.632C20.6032 14.632 20.0064 15.208 20.0064 15.9168C20.0064 16.6272 20.6032 17.2016 21.3392 17.2016C22.0752 17.2016 22.672 16.6256 22.672 15.9168C22.672 15.2064 22.0752 14.6304 21.3392 14.6304V14.632Z" fill="url(#paint0_linear_7_57)"/>
<defs>
<linearGradient id="paint0_linear_7_57" x1="-7.28614e-08" y1="6.18801" x2="16.0006" y2="6.16183" gradientUnits="userSpaceOnUse">
<stop stop-color="#337CCF"/>
<stop offset="1" stop-color="#F94C10"/>
</linearGradient>
</defs>
</svg>
