<svg width="32" height="32" viewBox="0 0 32 32" fill="none" xmlns="http://www.w3.org/2000/svg">
<g clip-path="url(#clip0_7_46)">
<mask id="mask0_7_46" style="mask-type:luminance" maskUnits="userSpaceOnUse" x="0" y="0" width="32" height="32">
<path d="M32 0H0V32H32V0Z" fill="white"/>
</mask>
<g mask="url(#mask0_7_46)">
<path d="M15.064 2.92666C15.5902 2.7298 16.1651 2.70413 16.7067 2.85333L16.936 2.92666L26.2693 6.42666C26.7426 6.60411 27.1556 6.9124 27.4604 7.3156C27.7652 7.71879 27.9491 8.20029 27.9907 8.70399L28 8.92399V16.0747C27.9999 18.2352 27.4166 20.3557 26.3115 22.2122C25.2064 24.0688 23.6205 25.5926 21.7213 26.6227L21.3667 26.808L16.8947 29.044C16.6484 29.1669 16.3795 29.2377 16.1046 29.252C15.8298 29.2662 15.5549 29.2235 15.2973 29.1267L15.1053 29.044L10.6333 26.808C8.70081 25.8417 7.06503 24.3716 5.89867 22.5528C4.73231 20.734 4.07864 18.6341 4.00667 16.4747L4 16.0747V8.92399C4.00001 8.41883 4.1435 7.92407 4.41378 7.49729C4.68405 7.07051 5.06999 6.72928 5.52667 6.51333L5.73067 6.42666L15.064 2.92666ZM16 5.42399L6.66667 8.92399V16.0747C6.6667 17.748 7.1166 19.3906 7.96927 20.8304C8.82194 22.2702 10.046 23.4543 11.5133 24.2587L11.8267 24.4227L16 26.5093L20.1733 24.4227C21.6703 23.6743 22.9385 22.5372 23.8452 21.1305C24.7518 19.7237 25.2635 18.0991 25.3267 16.4267L25.3333 16.0747V8.92399L16 5.42399ZM20.5773 11.5053C20.8173 11.2662 21.1392 11.1274 21.4778 11.117C21.8164 11.1067 22.1463 11.2256 22.4004 11.4497C22.6545 11.6737 22.8137 11.9861 22.8459 12.3233C22.878 12.6605 22.7806 12.9973 22.5733 13.2653L22.4627 13.3907L15.484 20.3707C15.2298 20.6248 14.8911 20.7768 14.5322 20.7977C14.1734 20.8186 13.8193 20.7069 13.5373 20.484L13.4093 20.3707L10.204 17.1653C9.96233 16.9259 9.82129 16.6032 9.80976 16.2633C9.79822 15.9233 9.91706 15.5918 10.142 15.3366C10.3668 15.0813 10.6808 14.9217 11.0195 14.8904C11.3582 14.8591 11.6961 14.9584 11.964 15.168L12.0893 15.2787L14.4467 17.636L20.5773 11.5053Z" fill="url(#paint0_linear_7_46)"/>
</g>
</g>
<defs>
<linearGradient id="paint0_linear_7_46" x1="4" y1="6.4478" x2="16.0004" y2="6.43268" gradientUnits="userSpaceOnUse">
<stop stop-color="#337CCF"/>
<stop offset="1" stop-color="#F94C10"/>
</linearGradient>
<clipPath id="clip0_7_46">
<rect width="32" height="32" fill="white"/>
</clipPath>
</defs>
</svg>
