<svg width="32" height="32" viewBox="0 0 32 32" fill="none" xmlns="http://www.w3.org/2000/svg">
<path d="M28 16.2933C28 8.97333 22.32 4 16 4C9.74663 4 3.99996 8.86667 3.99996 16.3733C3.19996 16.8267 2.66663 17.68 2.66663 18.6667V21.3333C2.66663 22.8 3.86663 24 5.33329 24C6.06663 24 6.66663 23.4 6.66663 22.6667V16.2533C6.66663 11.1467 10.6 6.68 15.7066 6.53333C16.9564 6.49532 18.2011 6.70858 19.367 7.16046C20.5329 7.61234 21.5962 8.29365 22.4939 9.16402C23.3916 10.0344 24.1055 11.0761 24.5932 12.2274C25.081 13.3788 25.3326 14.6163 25.3333 15.8667V25.3333H16C15.2666 25.3333 14.6666 25.9333 14.6666 26.6667C14.6666 27.4 15.2666 28 16 28H25.3333C26.8 28 28 26.8 28 25.3333V23.7067C28.7866 23.2933 29.3333 22.48 29.3333 21.52V18.4533C29.3333 17.52 28.7866 16.7067 28 16.2933Z" fill="url(#paint0_linear_7_52)"/>
<path d="M12 18.6667C12.7363 18.6667 13.3333 18.0697 13.3333 17.3333C13.3333 16.597 12.7363 16 12 16C11.2636 16 10.6666 16.597 10.6666 17.3333C10.6666 18.0697 11.2636 18.6667 12 18.6667Z" fill="url(#paint1_linear_7_52)"/>
<path d="M20 18.6667C20.7363 18.6667 21.3333 18.0697 21.3333 17.3333C21.3333 16.597 20.7363 16 20 16C19.2636 16 18.6666 16.597 18.6666 17.3333C18.6666 18.0697 19.2636 18.6667 20 18.6667Z" fill="url(#paint2_linear_7_52)"/>
<path d="M24 14.7067C23.6821 12.8322 22.7112 11.1306 21.2593 9.90317C19.8073 8.67573 17.9679 8.00156 16.0667 8C12.0267 8 7.68 11.3467 8.02667 16.6C9.67085 15.9272 11.123 14.858 12.2536 13.4877C13.3843 12.1174 14.1583 10.4887 14.5067 8.74667C16.2533 12.2533 19.84 14.6667 24 14.7067Z" fill="url(#paint3_linear_7_52)"/>
<defs>
<linearGradient id="paint0_linear_7_52" x1="2.66663" y1="7.34247" x2="16.0004" y2="7.32186" gradientUnits="userSpaceOnUse">
<stop stop-color="#337CCF"/>
<stop offset="1" stop-color="#F94C10"/>
</linearGradient>
<linearGradient id="paint1_linear_7_52" x1="10.6666" y1="16.3714" x2="12" y2="16.3695" gradientUnits="userSpaceOnUse">
<stop stop-color="#337CCF"/>
<stop offset="1" stop-color="#F94C10"/>
</linearGradient>
<linearGradient id="paint2_linear_7_52" x1="18.6666" y1="16.3714" x2="20" y2="16.3695" gradientUnits="userSpaceOnUse">
<stop stop-color="#337CCF"/>
<stop offset="1" stop-color="#F94C10"/>
</linearGradient>
<linearGradient id="paint3_linear_7_52" x1="8.0072" y1="9.19772" x2="16.0039" y2="9.17703" gradientUnits="userSpaceOnUse">
<stop stop-color="#337CCF"/>
<stop offset="1" stop-color="#F94C10"/>
</linearGradient>
</defs>
</svg>
